<svg width="213" height="107" viewBox="0 0 213 107" fill="none" xmlns="http://www.w3.org/2000/svg">
<path d="M212.698 92.2821C213.735 90.4839 211.963 83.866 209.527 80.0608C206.314 75.2477 196.187 66.9186 189.75 63.6793C184.607 61.1068 172.646 58.0318 167.208 57.7672C166.282 57.7115 163.104 54.916 160.151 51.4519C148.979 38.843 132.169 32.407 105.046 30.5607C90.8192 29.6131 66.6432 32.3468 50.2056 36.7546C45.5766 37.9959 41.6021 38.6564 41.4756 38.1837C41.3743 37.8055 42.7389 35.717 44.6265 33.6909C48.8857 28.7995 59.3857 11.2911 60.2002 7.52609C60.7955 4.83322 60.6436 4.26597 58.6697 2.56603C57.4651 1.47043 55.3158 0.628159 53.7975 0.629978C52.399 0.701007 50.8992 0.393863 50.5146 0.0916917C50.1046 -0.305021 48.5307 0.623673 47.0142 2.14495C45.4978 3.66623 42.087 6.81012 39.5887 9.20265C33.7489 14.6192 13.4937 40.3167 14.4588 41.2739C14.7489 41.6014 14.5297 42.6735 13.7622 43.5886C12.6743 45.1976 12.5545 45.1284 13.4029 43.381C13.811 42.2582 13.7975 41.4512 13.2307 41.6032C12.097 41.9072 10.6515 44.8281 11.49 45.3125C11.8494 45.5202 11.485 46.4285 10.8373 47.4128C9.65489 49.0472 9.53511 48.978 10.3835 47.2305C10.7917 46.1078 10.7781 45.3008 10.3058 45.4274C9.17212 45.7314 7.21722 49.3969 7.38267 50.7711C7.44007 51.3637 7.30854 52.007 7.10107 52.3666C6.79914 52.7516 6.79235 52.3481 7.01835 51.6795C7.21904 50.9163 6.97269 50.3744 6.50035 50.5011C5.46119 50.7797 4.17253 53.1519 4.36329 54.6207C4.4207 55.2133 4.28916 55.8565 4.0817 56.2162C3.77976 56.6011 3.77298 56.1976 4.04282 55.3146C4.28735 54.3371 4.02247 54.1041 3.24819 54.6157C2.56838 55.102 2.29853 55.985 2.63935 56.5016C2.88569 57.0435 2.79801 57.4724 2.42013 57.5737C-1.63029 57.9505 -0.344294 63.8881 4.40314 66.8709C9.53524 70.1559 12.7928 70.5996 34.081 71.0722C55.9612 71.4874 64.9376 70.6002 65.2242 67.8888C65.6725 63.5127 58.9227 61.3709 40.7521 60.0623C36.1904 59.6643 32.0319 59.2594 31.5275 58.8881C29.8067 58.1335 50.0534 51.691 66.8318 47.7997C84.0826 43.7818 96.5358 42.2663 110.491 42.5774C121.478 42.7723 134.969 45.1331 140.352 47.844C144.778 50.0013 151.837 57.836 150.723 59.3505C150.447 59.83 147.375 61.971 143.994 64.0935C133.784 70.5808 126.802 80.0527 126.717 87.6753C126.653 98.028 142.146 109.377 152.632 106.565C159.15 104.817 167.1 93.667 169.016 83.4257C169.516 80.7581 169.744 75.9347 169.475 72.6628C168.975 65.5011 169.68 65.1093 179.064 67.2543C190.186 69.8449 201.417 78.8915 205.423 88.5583C207.104 92.5662 207.633 93.0321 209.447 92.2418C209.825 92.1405 210.493 92.3667 210.928 92.8579C211.603 93.4876 212.144 93.2411 212.698 92.2821ZM157.63 97.6252C157.579 97.4361 158.321 96.4264 159.303 95.5552C161.008 93.9832 161.103 93.9579 160.254 95.7054C159.431 97.5473 157.908 98.6651 157.63 97.6252ZM141.448 94.6687C139.737 91.6822 140.531 86.7068 143.468 82.1701C146.776 77.1286 152.968 71.5162 153.845 72.9022C155.133 74.6849 152.109 85.3248 149.059 90.1957C145.708 95.4517 142.818 97.1385 141.448 94.6687ZM32.0219 40.3134C32.1602 40.0737 35.7581 35.3597 40.0797 29.9449C44.376 24.4357 49.433 17.6078 51.4453 14.5349C56.4196 7.01993 57.3272 7.38453 52.4981 15.0633C47.7127 22.5276 33.0376 41.4597 32.2244 41.0698C31.9595 40.8368 31.8583 40.4586 32.0219 40.3134ZM15.7745 40.5157C15.5974 39.8539 31.5494 19.2622 32.0285 19.539C32.2934 19.772 16.9335 40.3063 16.0394 40.7487C15.9703 40.8686 15.8252 40.7048 15.7745 40.5157Z" fill="#222222"/>
</svg>
