<svg width="40" height="40" viewBox="0 0 40 40" fill="none" xmlns="http://www.w3.org/2000/svg">
<g clip-path="url(#clip0_56_645)">
<circle cx="20" cy="20" r="20" fill="#EED4B2"/>
<path d="M13.4502 8.61133C13.981 8.66855 14.4652 8.93904 14.792 9.36133V9.3623L16.8643 12.0928H16.8604L17.5947 13.0557C18.1171 13.7416 18.0069 14.7188 17.3457 15.2725V15.2734L15.2656 17.0156L15.2607 17.0205C14.7853 17.4283 14.6276 18.0996 14.877 18.6768L14.8828 18.6885L14.8887 18.7012C15.5629 20.0865 16.4867 21.3356 17.6133 22.3867C18.6644 23.5134 19.9123 24.438 21.2988 25.1123L21.3262 25.124C21.9088 25.3727 22.5862 25.2085 22.9922 24.7227L24.7275 22.6543C25.2466 22.0346 26.137 21.8988 26.8125 22.3145L26.9443 22.4053L30.6377 25.208V25.207C31.0078 25.493 31.2613 25.9002 31.3574 26.3525L31.3887 26.5498C31.4449 27.0831 31.282 27.6156 30.9375 28.0234L28.8877 30.4189C28.3452 31.0432 27.5593 31.3998 26.7314 31.3994C22.2026 31.3571 17.7083 29.1541 14.3154 25.7822C10.9219 22.4097 8.6852 17.9236 8.60254 13.3906V13.377L8.60059 13.2158C8.6141 12.4121 8.96634 11.6485 9.5752 11.1172L9.57422 11.1162L11.9766 9.06152L11.9775 9.0625C12.3347 8.76081 12.7868 8.59761 13.251 8.59961L13.4502 8.61133Z" stroke="#C04F05" stroke-width="1.2"/>
</g>
<defs>
<clipPath id="clip0_56_645">
<rect width="40" height="40" fill="white"/>
</clipPath>
</defs>
</svg>
