<svg width="40" height="40" viewBox="0 0 40 40" fill="none" xmlns="http://www.w3.org/2000/svg">
<g clip-path="url(#clip0_56_645)">
<circle cx="20" cy="20" r="20" fill="white"/>
<path d="M14.7935 9.36365L16.8642 12.0926H16.8606L17.5943 13.0561C18.1167 13.7421 18.0071 14.7191 17.3458 15.2728L17.3455 15.273L15.2658 17.016L15.2658 17.016L15.2606 17.0205C14.7851 17.4283 14.6276 18.0992 14.877 18.6764L14.8824 18.6888L14.8883 18.701C15.5625 20.0864 16.486 21.3362 17.6127 22.3874C18.6639 23.5141 19.9127 24.4377 21.2993 25.112L21.3126 25.1184L21.3261 25.1242C21.9085 25.3728 22.5861 25.2096 22.9922 24.7242C22.9924 24.724 22.9925 24.7238 22.9927 24.7236L24.7271 22.6547L24.7273 22.6544C25.2809 21.9932 26.2572 21.8832 26.9445 22.4053L26.9447 22.4055L30.6348 25.2055C30.6353 25.2059 30.6358 25.2063 30.6363 25.2067C31.0599 25.5335 31.3316 26.0182 31.389 26.5488C31.4455 27.0818 31.2829 27.6139 30.9389 28.0219C30.9385 28.0223 30.9382 28.0227 30.9378 28.0231L28.941 30.3578L28.8879 30.419C28.3455 31.0431 27.5598 31.4005 26.7322 31.4003C22.2031 31.3583 17.7084 29.1546 14.3153 25.7825C10.9216 22.4099 8.68517 17.9234 8.60263 13.3902L8.60277 13.3902L8.60226 13.3773C8.56804 12.5161 8.9248 11.686 9.57299 11.1192L11.9785 9.06102C12.3865 8.71701 12.9184 8.55457 13.4502 8.61099C13.9819 8.6683 14.4666 8.94009 14.7935 9.36365Z" stroke="#AA4500" stroke-width="1.2"/>
</g>
<defs>
<clipPath id="clip0_56_645">
<rect width="40" height="40" fill="white"/>
</clipPath>
</defs>
</svg>
