<svg width="40" height="40" viewBox="0 0 40 40" fill="none" xmlns="http://www.w3.org/2000/svg">
<g clip-path="url(#clip0_56_644)">
<circle cx="20" cy="20" r="20" fill="#EED4B2"/>
<path d="M23.3096 8.5H26.8809C26.9326 8.5 26.9766 8.54399 26.9766 8.5957V13.3574C26.9764 13.409 26.9325 13.4521 26.8809 13.4521H25.7002L25.7031 13.4492H24.5039C23.2431 13.4492 22.2179 14.4736 22.2178 15.7344V18.0205H26.8848C26.8969 18.0206 26.9101 18.0231 26.9229 18.0293L26.959 18.0596C26.9769 18.0826 26.9831 18.1115 26.9756 18.1396L26.9746 18.1416L25.7334 22.9033V22.9043C25.7226 22.9461 25.6851 22.9764 25.6396 22.9766H22.0088V32.4043C22.0088 32.456 21.9648 32.5 21.9131 32.5H16.9434C16.8917 32.5 16.8477 32.456 16.8477 32.4043V22.9766H12.5957C12.544 22.9766 12.5 22.9326 12.5 22.8809V18.167C12.5 18.1153 12.544 18.0713 12.5957 18.0713H17.2617V14.5479C17.2617 11.2142 19.9759 8.5 23.3096 8.5ZM23.3076 8.69043C20.0761 8.69043 17.4502 11.3189 17.4502 14.5479V18.167C17.45 18.2184 17.4069 18.2615 17.3555 18.2617H12.6885V22.7861H16.9414C16.9929 22.7863 17.0361 22.8293 17.0361 22.8809V32.3096H21.8154V22.8809C21.8155 22.8292 21.8595 22.7861 21.9111 22.7861H25.5654L25.6631 22.4121L26.5938 18.8408L26.7568 18.2139H22.1172C22.0655 18.2139 22.0215 18.1708 22.0215 18.1191V15.7383C22.0215 14.374 23.1338 13.2617 24.498 13.2617H26.7832V8.69043H23.3076Z" fill="#AA4500" stroke="#C04F05"/>
</g>
<defs>
<clipPath id="clip0_56_644">
<rect width="40" height="40" fill="white"/>
</clipPath>
</defs>
</svg>
