<svg width="40" height="40" viewBox="0 0 40 40" fill="none" xmlns="http://www.w3.org/2000/svg">
<g clip-path="url(#clip0_56_644)">
<circle cx="20" cy="20" r="20" fill="white"/>
<path d="M24.5 13.9524H26.881C27.2088 13.9524 27.4762 13.685 27.4762 13.3571V8.59524C27.4762 8.26738 27.2088 8 26.881 8H23.3095C19.6997 8 16.7619 10.9378 16.7619 14.5476V17.5714H12.5952C12.2674 17.5714 12 17.8388 12 18.1667V22.881C12 23.2088 12.2674 23.4762 12.5952 23.4762H16.3479V32.4048C16.3479 32.7326 16.6153 33 16.9432 33H21.9131C22.241 33 22.5083 32.7326 22.5083 32.4048V23.4762H25.6393C25.9102 23.4762 26.1485 23.2948 26.2171 23.0298L27.4587 18.2679C27.5064 18.0888 27.468 17.8993 27.3541 17.7528C27.2413 17.6075 27.0681 17.5203 26.8844 17.5203H22.7177V15.7346C22.7177 14.7499 23.5188 13.9489 24.5035 13.9489L24.5 13.9524ZM22.119 18.7143H26.1101L25.1789 22.2857H21.911C21.5832 22.2857 21.3158 22.5531 21.3158 22.881V31.8095H17.5363V22.881C17.5363 22.5531 17.2689 22.2857 16.9411 22.2857H13.1884V18.7619H17.3551C17.6829 18.7619 17.9503 18.4945 17.9503 18.1667V14.5476C17.9503 11.5947 20.3522 9.19048 23.3075 9.19048H26.2837V12.7619H24.4979C22.8576 12.7619 21.5218 14.0977 21.5218 15.7381V18.119C21.5218 18.4469 21.7891 18.7143 22.117 18.7143H22.119Z" fill="#AA4500"/>
</g>
<defs>
<clipPath id="clip0_56_644">
<rect width="40" height="40" fill="white"/>
</clipPath>
</defs>
</svg>
