<svg width="1440" height="960" viewBox="0 0 1440 960" fill="none" xmlns="http://www.w3.org/2000/svg">
<path d="M423 487C423 475.954 431.954 467 443 467H997C1008.05 467 1017 475.954 1017 487V653C1017 664.046 1008.05 673 997 673H443C431.954 673 423 664.046 423 653V487Z" fill="#AA4500"/>
<g clip-path="url(#clip0_17_370)">
<path d="M546.035 621.989C535.836 621.989 525.677 619.007 518.79 615.525C514.125 613.17 509.778 610.124 505.869 606.484C502.66 603.494 501.792 598.664 503.759 594.746C503.934 594.397 504.077 594.064 504.213 593.763C504.587 592.938 504.969 592.074 505.598 591.28C507.135 589.321 509.985 588.972 511.951 590.511C513.878 592.018 514.252 594.77 512.811 596.729C512.7 596.927 512.596 597.173 512.477 597.443C512.294 597.855 512.087 598.307 511.848 598.775C511.657 599.156 511.736 599.608 512.047 599.894C515.327 602.947 518.965 605.5 522.875 607.475C533.177 612.679 553.662 617.056 564.792 606.651C570.484 601.329 572.825 590.273 571.201 576.322C569.712 563.514 565.087 550.539 559.418 543.274C555.119 537.754 545.796 528.221 531.704 526.325C527.866 525.81 518.91 524.604 510.638 529.966C502.971 534.938 496.291 545.249 498.393 553.893C499.515 558.501 503.21 562.879 508.528 565.901C516.482 570.422 526.696 571.286 536.568 568.28C538.965 567.559 541.489 568.891 542.221 571.279C542.954 573.658 541.608 576.18 539.212 576.91C526.967 580.637 514.149 579.479 504.046 573.737C496.57 569.486 491.307 563.03 489.603 556.011C487.183 546.066 491.944 531.322 505.71 522.407C516.8 515.222 528.495 516.792 532.906 517.387C545.732 519.108 557.682 526.333 566.575 537.738C573.184 546.216 578.534 560.952 580.198 575.276C581.344 585.158 581.678 603.232 570.994 613.217C564.139 619.634 555.063 621.974 546.035 621.974V621.989ZM512.763 596.809C512.763 596.809 512.74 596.832 512.732 596.848C512.74 596.832 512.756 596.824 512.763 596.809Z" fill="#FCFAF1"/>
<path d="M584.338 564.561C581.845 564.561 579.824 562.554 579.808 560.072C579.799 557.581 581.814 555.551 584.314 555.543C589.76 555.519 593.589 552.093 594.003 548.945C594.249 547.081 593.525 544.368 591.933 543.242C590.81 542.449 589.075 542.417 587.554 542.386C585.659 542.346 581.726 542.267 580.524 538.523C579.346 534.867 582.348 532.543 583.788 531.425C584.672 530.743 585.588 530.029 586.169 529.188C588.295 526.095 587.236 519.536 583.939 515.412C579.513 509.868 570.134 508.361 563.877 512.192C560.596 514.199 558.837 517.3 557.929 519.552C557.006 521.868 554.37 522.986 552.046 522.066C549.721 521.146 548.59 518.521 549.522 516.205C550.931 512.692 553.741 507.806 559.131 504.507C569.378 498.234 583.677 500.605 591.018 509.797C596.129 516.197 598.509 527.039 593.7 534.177C594.847 534.542 596.017 535.081 597.147 535.874C602.02 539.3 603.588 545.503 602.975 550.118C601.893 558.303 593.891 564.513 584.353 564.561H584.33H584.338Z" fill="#FCFAF1"/>
<path d="M616.626 569.425C617.929 567.635 618.246 566.392 618.246 565.148C618.246 564.147 618.087 563.753 617.674 563.753C617.357 563.753 616.849 563.905 616.308 563.905C613.958 563.905 611.608 562.267 611.608 559.325C611.608 556.079 614.054 554.138 616.975 554.138C621.041 554.138 623.55 556.868 623.55 561.266C623.55 565.239 622.343 568.394 619.644 571.275C618.119 573.155 616.308 574.217 614.625 575.249C614.307 575.491 613.99 575.552 613.736 575.552C613.006 575.552 612.116 574.611 612.116 574.005C612.116 573.611 612.275 573.307 612.752 573.004C614.467 571.851 615.769 570.669 616.658 569.425" fill="#FCFAF1"/>
<path d="M651.523 593.026C661.318 595.406 665.746 598.461 665.746 606.276C665.746 614.091 659.238 619.172 648.067 619.172C636.897 619.172 630.925 613.351 629.986 607.755C629.919 607.337 629.919 607.016 629.919 606.694C629.919 604.475 631.63 603.317 634.817 603.317C637.232 603.317 638.238 604.475 638.608 606.598C639.211 610.618 643.237 612.612 648.236 612.612C654.408 612.612 657.494 610.296 657.494 606.115C657.494 602.835 655.515 601.838 648.571 600.101L646.323 599.522C636.695 597.046 631.295 594.827 631.295 586.594C631.295 579.615 637.4 574.759 647.866 574.759C656.789 574.759 662.089 577.878 663.901 584.15C664.069 584.632 664.069 585.146 664.069 585.533C664.069 587.591 662.526 588.909 659.439 588.909C657.628 588.909 656.253 588.266 655.749 586.369C654.81 583.089 652.227 581.352 647.766 581.352C642.365 581.352 639.614 583.249 639.614 586.594C639.614 590.131 642.432 590.871 649.141 592.447L651.556 593.026H651.523Z" fill="#FCFAF1"/>
<path d="M717.518 554.931C730.585 554.931 737.086 560.264 737.086 570.801C737.086 576.969 734.608 581.306 729.362 583.78C737.44 585.997 741.206 591.329 741.206 599.714C741.206 612.115 733.546 618.379 718.323 618.379H702.842C695.086 618.379 692.64 616.066 692.64 608.935V564.344C692.64 557.373 695.183 554.963 702.939 554.963H717.518V554.931ZM703.937 562.481C702.295 562.481 701.458 563.316 701.458 564.954V581.049H717.261C724.663 581.049 728.139 577.258 728.139 571.508C728.139 565.757 724.696 562.481 717.776 562.481H703.937ZM701.458 608.163C701.458 609.898 702.263 610.701 703.84 610.701H718.484C727.527 610.701 732.065 606.91 732.065 599.522C732.065 592.132 727.528 588.438 718.548 588.438H701.427V608.163H701.458Z" fill="#FCFAF1"/>
<path d="M784.764 605.877C784.764 608.993 785.186 611.305 786.098 612.846C786.423 613.424 786.586 614.002 786.586 614.644C786.586 617.277 783.917 618.659 781.769 618.659C780.434 618.659 779.36 618.016 778.611 616.7C778.351 616.218 777.863 614.965 777.602 614.002C773.175 617.695 768.618 619.172 762.791 619.172C753.97 619.172 748.371 614.419 748.371 606.52C748.371 599.133 752.635 594.862 762.205 592.389C766.111 591.393 770.767 590.591 776.789 590.077V588.182C776.789 583.654 773.891 581.278 768.455 581.278C762.14 581.278 760.122 583.975 758.885 587.604C758.234 589.499 756.737 590.141 755.239 590.141C752.733 590.141 750.585 588.825 750.585 586.769C750.585 586.352 750.65 585.87 750.845 585.356C753.351 578.195 759.406 574.759 768.586 574.759C779.816 574.759 784.829 579.19 784.829 588.215V605.781L784.764 605.877ZM776.756 596.275C771.84 596.693 767.511 597.592 763.605 598.812C759.015 600.29 756.444 602.666 756.444 606.52C756.444 610.373 759.438 612.685 763.931 612.685C768.423 612.685 772.654 610.533 776.756 606.616V596.275Z" fill="#FCFAF1"/>
<path d="M803.541 595.464C805.297 593.554 806.956 591.643 808.517 590.088L821.82 576.583C822.633 575.741 823.642 575.352 824.715 575.352C826.894 575.352 829.139 577.36 829.139 579.497C829.139 580.405 828.814 581.246 827.903 582.153L815.348 593.845L829.562 612.728C830.147 613.472 830.375 614.315 830.375 615.059C830.375 617.391 828.065 619.108 825.788 619.108C824.618 619.108 823.544 618.622 822.731 617.456L809.493 599.059L803.508 604.533V615.286C803.508 617.942 802.174 619.172 799.345 619.172C796.677 619.172 795.344 617.942 795.344 615.286V557.96C795.344 555.401 796.677 554.138 799.345 554.138C802.174 554.138 803.508 555.369 803.508 557.96V595.464H803.541Z" fill="#FCFAF1"/>
<path d="M843.29 599.104C843.718 605.761 847.574 612.515 855.349 612.515C859.831 612.515 863.093 610.199 865.201 605.44C865.959 603.703 867.31 602.963 868.826 602.963C871.099 602.963 873.636 604.507 873.636 606.501C873.636 607.08 873.472 607.659 873.142 608.302C869.452 615.538 863.62 619.172 855.349 619.172C842.961 619.172 835.152 610.296 835.152 596.885C835.152 585.79 841.709 574.759 855.448 574.759C869.189 574.759 874.163 586.915 874.163 593.09C874.163 597.11 872.154 599.104 868.167 599.104H843.323H843.29ZM865.103 592.544C865.696 592.544 866.025 592.126 866.025 591.643L865.926 591.321C864.674 584.664 860.951 581.384 855.416 581.384C849.419 581.384 844.806 585.5 843.521 592.575H865.103V592.544Z" fill="#FCFAF1"/>
<path d="M890.614 615.336C890.614 617.905 889.138 619.172 886.319 619.172C883.5 619.172 882.125 617.937 882.125 615.336V578.985C882.125 576.482 883.601 575.246 886.42 575.246C889.238 575.246 890.614 576.482 890.614 578.985V581.814C891.989 579.636 893.768 578.075 895.513 576.905C897.929 575.312 900.412 574.759 904.17 574.759C907.257 574.759 908.398 575.929 908.398 578.4C908.398 581.229 907.022 582.659 904.271 582.659C900.311 582.659 897.929 583.082 895.949 584.642C893.533 586.561 891.654 589.553 890.614 593.877V615.336Z" fill="#FCFAF1"/>
<path d="M927.951 598.893C929.298 602.158 930.482 605.615 931.303 608.4C932.224 605.455 933.242 602.19 934.392 598.989L942.279 577.287C942.937 575.559 944.219 574.759 945.894 574.759C948.59 574.759 950.594 576.295 950.594 578.183C950.594 578.664 950.528 579.176 950.265 579.752L931.698 627.381C928.674 635.159 924.041 639 917.83 639C914.477 639 912.374 638.584 910.501 637.623C908.989 636.791 908.398 635.735 908.398 634.519C908.398 631.83 910.238 629.782 912.275 629.782C912.966 629.782 913.721 629.942 914.477 630.358C915.562 630.934 916.844 631.414 917.83 631.414C920.261 631.414 922.364 629.782 923.975 625.524L927.064 617.266L911.191 580.008C910.928 579.432 910.863 578.952 910.863 578.439C910.863 576.391 912.966 574.855 915.726 574.855C917.5 574.855 918.651 575.655 919.341 577.32L927.918 598.925L927.951 598.893Z" fill="#FCFAF1"/>
</g>
<g clip-path="url(#clip1_17_370)">
<path d="M688.902 443.021C692.589 444.111 696.338 445.001 700.118 445.722C705.972 446.919 711.872 447.533 717.833 447.871C720.138 447.978 722.488 447.871 724.839 447.64C728.726 447.303 732.66 446.919 736.501 446.336C740.926 445.722 745.243 444.847 749.468 443.65C749.899 443.512 750.283 443.42 750.713 443.267C750.928 443.205 751.143 443.144 751.343 443.067L751.742 444.326C751.527 444.387 751.312 444.448 751.097 444.525C750.667 444.663 750.237 444.801 749.852 444.955C748.608 445.431 747.394 445.998 746.196 446.674C742.462 448.837 739.773 451.906 738.083 455.881C736.747 459.196 735.64 462.541 735.057 466.101C735.01 466.286 734.918 466.439 734.872 466.669H704.773C704.143 464.413 703.621 462.265 702.991 460.101C702.515 458.567 701.946 457.032 701.316 455.543C699.196 450.71 695.555 447.441 690.745 445.385C689.993 445.062 689.24 444.771 688.471 444.51L688.902 443.021Z" fill="#FCFAF1"/>
<path d="M748.992 409.368C749.653 411.148 748.792 413.158 747.025 413.879C743.999 415.03 741.202 415.706 738.575 415.936C736.839 421.169 732.229 427.982 723.057 427.982C713.884 427.982 709.29 421.261 707.508 416.043C704.527 415.936 701.27 415.215 697.767 413.879C695.939 413.158 695.078 411.148 695.739 409.368C696.461 407.603 698.489 406.682 700.256 407.404C705.772 409.567 710.105 409.659 713.024 407.695C717.879 404.38 718.693 396.278 718.786 395.081V379.014C716.681 377.295 714.606 375.377 712.455 373.643C710.105 371.786 710.581 367.903 713.516 366.691C716.681 365.448 719.938 364.972 723.303 365.11C726.514 365.218 729.587 365.985 732.429 367.566C733.474 368.18 734.242 369.054 734.488 370.297C734.78 371.878 734.35 373.167 733.09 374.18C731.031 375.899 728.204 377.817 726.13 379.551V395.326C726.237 398.058 727.528 404.871 731.753 407.695C734.672 409.659 739.005 409.567 744.475 407.404C746.257 406.682 748.27 407.603 748.992 409.368ZM723.057 421.031C727.866 421.031 730.309 417.808 731.461 415.169C730.217 414.739 728.972 414.171 727.866 413.404C725.362 411.777 723.641 409.475 722.396 407.112C721.09 409.475 719.369 411.777 716.865 413.404C716.097 413.926 715.282 414.355 714.422 414.739C715.528 417.424 717.925 421.031 723.057 421.031Z" fill="#AA4500"/>
<path d="M660.508 380.548C660.508 381.607 659.694 382.421 658.68 382.421C657.666 382.421 656.867 381.607 656.867 380.548C656.867 379.551 657.681 378.738 658.68 378.738C659.679 378.738 660.508 379.551 660.508 380.548Z" fill="#AA4500"/>
<path d="M762.236 347.846C768.904 346.557 775.48 351.499 776.11 358.251C776.679 364.389 772.515 369.96 766.461 371.019C765.739 371.111 765.063 371.157 764.111 371.249C763.342 371.111 762.282 370.911 761.222 370.773C760.746 370.681 760.408 370.389 760.131 370.006C758.057 367.136 755.752 364.451 753.263 361.949C752.925 361.612 752.772 361.274 752.726 360.844C752.065 354.568 756.044 349.105 762.236 347.846ZM765.309 354.322C765.355 356.148 766.753 357.484 768.566 357.484C770.379 357.484 771.793 356.056 771.747 354.23C771.747 352.404 770.303 351.023 768.52 351.069C766.646 351.069 765.263 352.511 765.309 354.322Z" fill="#AA4500"/>
<path d="M782.256 378.738C783.27 378.738 784.084 379.551 784.084 380.548C784.084 381.607 783.27 382.421 782.256 382.421C781.242 382.421 780.428 381.607 780.428 380.548C780.428 379.551 781.242 378.738 782.256 378.738Z" fill="#AA4500"/>
<path d="M697.521 467.437C697.659 468.541 697.721 469.692 697.659 470.797C697.629 472.194 697.106 473.421 696.215 474.434H667.038C666.746 473.912 666.516 473.36 666.316 472.762C665.686 470.935 664.918 469.217 664.257 467.39C664.057 466.869 663.673 466.715 663.105 466.715H651.382C651.382 466.485 651.382 466.378 651.428 466.286C652.642 463.032 654.117 459.917 656.191 457.078C657.866 454.884 659.94 453.349 662.613 452.474C668.713 450.51 675.012 449.651 681.435 450.326C683.893 450.602 686.244 451.139 688.502 452.198C691.621 453.671 693.926 455.973 695.124 459.288C696.123 461.973 697.091 464.659 697.521 467.437Z" fill="#FCFAF1"/>
<path d="M768.566 357.484C766.753 357.484 765.355 356.148 765.309 354.322C765.263 352.511 766.646 351.069 768.52 351.069C770.303 351.023 771.747 352.404 771.747 354.23C771.793 356.056 770.395 357.484 768.566 357.484Z" fill="#FCFAF1"/>
<path d="M753.156 442.453C754.262 442.177 755.322 441.794 756.382 441.41C763.389 438.863 769.872 435.456 775.726 430.806C777.063 429.793 778.323 428.642 779.613 427.553C779.859 427.353 780.09 427.108 780.336 426.877C780.581 427.016 780.766 427.062 780.965 427.215C788.11 432.724 793.964 439.338 797.959 447.533C800.74 453.196 802.322 459.196 802.522 465.518V466.669H795.838C795.746 466.332 795.608 465.994 795.5 465.672C794.071 461.452 792.197 457.416 789.646 453.733C789.032 452.858 788.356 452.045 787.68 451.231C785.513 448.791 782.932 447.011 779.813 445.906C775.48 444.418 771.025 443.558 766.461 443.175C763.097 442.883 759.686 442.883 756.336 443.374C755.414 443.512 754.554 443.65 753.648 443.85C752.987 443.988 752.372 444.142 751.742 444.326L751.343 443.067C751.957 442.883 752.557 442.668 753.156 442.453Z" fill="#FCFAF1"/>
<path d="M667.038 474.434H696.215C696.015 474.68 695.8 474.895 695.555 475.11C693.496 476.89 691.237 478.271 688.548 478.9C683.693 480.005 678.853 480.235 673.952 479.038C672.323 478.608 670.833 478.041 669.435 477.074C668.375 476.368 667.607 475.478 667.038 474.434Z" fill="#FCFAF1"/>
<path d="M779.091 386.794C780.09 386.794 780.904 387.607 780.904 388.605C780.904 389.602 780.09 390.431 779.091 390.431C778.553 390.431 778.123 390.247 777.785 389.909C777.401 389.572 777.217 389.096 777.217 388.605C777.217 388.114 777.401 387.653 777.785 387.316C778.123 386.978 778.553 386.794 779.091 386.794Z" fill="#AA4500"/>
<path d="M743.353 474.434H772.515C771.762 475.815 770.625 476.874 769.15 477.657C767.66 478.47 766.077 478.992 764.403 479.284C759.363 480.235 754.37 480.005 749.468 478.424C747.256 477.703 745.381 476.399 743.707 474.818C743.584 474.695 743.461 474.572 743.353 474.434Z" fill="#FCFAF1"/>
<path d="M782.656 475.186C782.102 476.429 781.058 479.038 779.782 480.45C775.649 484.977 772.392 487.555 760.131 487.555C749.991 487.555 736.777 484.962 734.98 474.434H743.353C743.461 474.572 743.584 474.695 743.707 474.818C745.381 476.399 747.256 477.703 749.468 478.424C754.37 480.005 759.363 480.235 764.403 479.284C766.077 478.992 767.66 478.47 769.15 477.657C770.625 476.874 771.762 475.815 772.515 474.434H783.839C783.316 474.434 782.855 474.726 782.656 475.186Z" fill="#AA4500"/>
<path d="M777.785 387.316C777.401 387.653 777.217 388.129 777.217 388.605C777.217 389.081 777.401 389.572 777.785 389.909C778.123 390.247 778.553 390.431 779.091 390.431C780.09 390.431 780.904 389.618 780.904 388.605C780.904 387.592 780.09 386.794 779.091 386.794C778.553 386.794 778.123 386.978 777.785 387.316ZM780.428 380.548C780.428 381.607 781.242 382.421 782.256 382.421C783.27 382.421 784.084 381.607 784.084 380.548C784.084 379.551 783.27 378.738 782.256 378.738C781.242 378.738 780.428 379.551 780.428 380.548ZM774.39 384.247C775.388 384.247 776.203 383.433 776.203 382.421C776.203 381.408 775.388 380.548 774.39 380.548C773.329 380.548 772.515 381.423 772.515 382.421C772.515 383.418 773.329 384.247 774.39 384.247ZM775.68 420.402C773.76 411.102 771.025 402.033 766.938 393.454C763.143 385.352 758.303 377.97 752.157 371.494C746.58 365.648 740.25 360.844 732.906 357.391C725.792 354.092 718.601 354.092 711.487 357.438C701.839 361.949 693.972 368.671 687.396 376.957C681.25 384.83 676.779 393.546 673.476 402.892C671.064 409.659 669.343 416.565 668.098 423.563C668.098 423.808 667.991 424.038 667.899 424.484C667.514 424.192 667.222 423.946 666.946 423.716C664.595 421.737 662.475 419.588 660.6 417.332C655.853 411.624 652.488 405.056 650.475 397.72C649.661 394.789 649.031 391.828 648.693 388.85C648.416 385.965 648.309 383.096 648.462 380.165C648.601 378.062 648.985 375.945 649.323 373.796C650.475 366.691 651.873 359.601 653.64 352.604C655.761 344.347 658.296 336.245 661.952 328.526C663.197 325.948 664.488 323.446 666.178 321.145C666.792 320.193 667.514 319.272 668.283 318.413C669.635 316.924 669.635 314.761 668.283 313.426C666.9 312.091 664.687 312.091 663.289 313.564C662.337 314.577 661.415 315.727 660.6 316.878C657.635 321.099 655.423 325.748 653.456 330.49C650.229 338.363 647.879 346.511 645.912 354.752C644.714 359.893 643.699 365.018 642.839 370.205V370.343C642.547 371.832 642.363 373.32 642.117 374.748C641.933 376.144 641.733 377.479 641.548 378.876C641.303 380.318 640.627 381.561 639.72 382.62C638.952 383.479 638.568 383.525 637.707 382.758C637.031 382.083 636.309 381.423 635.833 380.61C634.773 378.922 633.667 377.249 632.852 375.469C631.362 372.108 629.979 368.671 628.581 365.264C626.753 360.66 624.94 356.01 623.203 351.361C619.408 341.232 621.575 330.107 628.873 322.434C630.978 320.193 633.482 318.367 636.263 317.017C640.581 314.914 644.852 312.658 648.847 309.927C649.845 309.205 650.859 308.53 651.873 307.763C652.872 307.042 653.84 306.274 654.793 305.507C658.296 302.73 661.952 300.244 665.978 298.233C671.786 295.302 677.931 293.952 684.461 294.397C690.469 294.826 696.507 295.256 702.515 295.594C707.17 295.87 711.825 296.115 716.481 296.115C722.488 296.162 728.481 296.069 734.488 295.824C740.588 295.594 746.687 295.103 752.772 294.719C754.754 294.627 756.72 294.335 758.733 294.335C761.038 294.397 763.296 294.78 765.555 295.394C770.487 296.699 775.004 298.939 779.183 301.824C780.812 302.929 782.394 304.08 783.885 305.277C789.262 309.681 795.07 313.334 801.369 316.295C804.919 317.983 808.176 320.132 810.819 323.155C814.859 327.759 817.057 333.176 817.548 339.268C817.871 343.534 817.302 347.57 815.766 351.499C812.939 358.742 810.096 365.924 807.223 373.121C806.301 375.285 805.103 377.341 803.997 379.351C803.567 380.165 802.998 380.886 802.414 381.607C802.076 382.037 801.692 382.421 801.308 382.758C800.402 383.525 800.017 383.479 799.249 382.574C798.189 381.377 797.667 379.981 797.421 378.4C797.283 377.295 797.083 376.236 796.898 375.177V375.085C796.222 370.865 795.5 366.691 794.732 362.471C793.15 354.184 791.091 346.036 788.356 338.025C786.343 331.979 783.931 326.132 780.766 320.623C779.429 318.214 777.893 315.912 776.018 313.855C775.25 312.996 774.328 312.474 773.176 312.474C771.793 312.474 770.733 313.088 770.103 314.285C769.442 315.528 769.442 316.878 770.349 317.937C776.064 324.597 779.091 332.562 781.872 340.664C784.745 348.997 786.773 357.637 788.356 366.307C789.216 370.911 789.984 375.515 790.614 380.165C790.891 382.574 790.845 385.06 790.707 387.454C790.66 387.884 790.66 388.375 790.614 388.804C790.614 388.897 790.614 389.035 790.553 389.142C790.169 394.268 789.032 399.255 787.203 404.043C785.329 408.892 782.779 413.358 779.567 417.332C778.661 418.483 777.739 419.542 776.74 420.586C776.494 420.785 776.249 421.031 775.911 421.353C775.818 420.923 775.726 420.693 775.68 420.402ZM700.886 330.858C700.502 330.889 700.118 330.92 699.734 330.981C698.428 331.211 697.091 331.595 695.893 331.979C694.694 332.362 693.496 332.792 692.236 333.176C692.005 333.283 691.852 333.513 691.898 333.759C692.005 334.05 692.236 334.189 692.482 334.143C693.772 333.897 695.032 333.605 696.277 333.375C696.891 333.222 697.521 333.084 698.151 332.946C698.72 332.838 699.35 332.746 699.964 332.7C701.178 332.608 702.422 332.654 703.621 332.792C704.819 332.946 706.018 333.176 707.124 333.559C707.692 333.759 708.276 333.943 708.799 334.235L709.229 334.434L709.613 334.618C709.905 334.756 710.197 334.91 710.443 335.048C711.595 335.677 712.64 336.291 713.946 336.874C716.435 337.979 719.216 338.501 721.951 338.501C723.303 338.455 724.639 338.271 725.992 337.979C727.328 337.641 728.634 337.212 729.879 336.582C730.171 336.444 730.463 336.291 730.785 336.107L731.231 335.861L731.615 335.631L733.29 334.618C733.582 334.48 733.812 334.281 734.104 334.189L734.488 333.943L734.872 333.759C735.395 333.467 735.978 333.222 736.547 332.992C738.805 332.178 741.264 331.749 743.707 331.887C743.999 331.887 744.337 331.887 744.613 331.933C744.951 331.979 745.243 331.979 745.535 332.025C746.15 332.132 746.78 332.27 747.394 332.362C748.7 332.608 749.945 332.792 751.235 332.992C751.435 333.038 751.619 332.946 751.681 332.746C751.727 332.516 751.619 332.316 751.389 332.224C750.191 331.887 748.931 331.503 747.686 331.165C746.488 330.782 745.197 330.444 743.845 330.306C743.492 330.26 743.123 330.229 742.754 330.199L743.169 325.641C743.307 325.61 743.43 325.518 743.461 325.365C743.568 325.181 743.415 324.935 743.23 324.843C742.309 324.551 741.448 324.306 740.542 324.03C739.666 323.738 738.713 323.446 737.699 323.354C735.779 323.063 733.72 323.201 731.799 323.83C731.323 323.968 730.847 324.168 730.355 324.352C730.171 324.459 729.925 324.597 729.694 324.689C729.449 324.843 729.249 324.935 729.064 325.027C728.25 325.457 727.39 325.994 726.668 326.331C725.899 326.654 725.085 326.899 724.255 327.099C723.441 327.283 722.581 327.375 721.72 327.375C720.906 327.375 720.03 327.329 719.216 327.145C718.401 326.991 717.587 326.761 716.773 326.424C716.051 326.132 715.19 325.656 714.376 325.273C713.946 325.073 713.454 324.797 713.024 324.643C712.548 324.459 712.071 324.26 711.595 324.122C709.613 323.585 707.554 323.492 705.588 323.83C704.62 324.03 703.667 324.306 702.807 324.597C701.946 324.935 701.024 325.227 700.164 325.564C699.918 325.61 699.78 325.84 699.826 326.086C699.872 326.378 700.164 326.516 700.41 326.47L700.886 330.858ZM658.68 382.421C659.694 382.421 660.508 381.607 660.508 380.548C660.508 379.551 659.694 378.738 658.68 378.738C657.666 378.738 656.867 379.551 656.867 380.548C656.867 381.607 657.681 382.421 658.68 382.421ZM664.733 382.421C664.733 383.433 665.548 384.247 666.562 384.247C667.576 384.247 668.375 383.433 668.375 382.421C668.375 381.408 667.56 380.548 666.562 380.548C665.563 380.548 664.733 381.423 664.733 382.421ZM766.461 371.019C772.515 369.96 776.679 364.389 776.11 358.251C775.48 351.499 768.904 346.557 762.236 347.846C756.044 349.105 752.065 354.568 752.726 360.844C752.772 361.274 752.925 361.612 753.263 361.949C755.752 364.451 758.057 367.136 760.131 370.006C760.408 370.389 760.746 370.681 761.222 370.773C762.282 370.911 763.342 371.111 764.111 371.249C765.063 371.157 765.739 371.111 766.461 371.019ZM689.839 360.169V359.601C689.931 353.033 684.615 347.662 677.978 347.616C677.209 347.708 676.349 347.8 675.581 347.954C669.097 349.289 665.025 355.811 666.608 362.195C668.19 368.671 674.766 372.553 681.158 370.773C681.727 370.635 682.111 370.343 682.449 369.868C684.369 367.228 686.428 364.681 688.779 362.425C689.455 361.765 689.793 361.044 689.839 360.169ZM663.673 388.605C663.673 387.607 662.859 386.794 661.845 386.794C660.831 386.794 660.032 387.607 660.032 388.605C660.032 389.602 660.846 390.431 661.845 390.431C662.844 390.431 663.673 389.618 663.673 388.605Z" fill="#FCFAF1"/>
<path d="M731.461 415.169C730.309 417.808 727.866 421.031 723.057 421.031C717.925 421.031 715.528 417.424 714.422 414.739C715.282 414.355 716.097 413.926 716.865 413.404C719.369 411.777 721.09 409.475 722.396 407.112C723.641 409.475 725.362 411.777 727.866 413.404C728.972 414.171 730.217 414.739 731.461 415.169Z" fill="#FCFAF1"/>
<path d="M774.389 380.548C775.388 380.548 776.202 381.423 776.202 382.421C776.202 383.418 775.388 384.247 774.389 384.247C773.329 384.247 772.515 383.433 772.515 382.421C772.515 381.408 773.329 380.548 774.389 380.548Z" fill="#AA4500"/>
<path d="M661.845 386.794C662.859 386.794 663.673 387.607 663.673 388.605C663.673 389.602 662.859 390.431 661.845 390.431C660.831 390.431 660.032 389.618 660.032 388.605C660.032 387.592 660.846 386.794 661.845 386.794Z" fill="#AA4500"/>
<path d="M656.437 474.434H667.038C667.607 475.478 668.375 476.368 669.435 477.074C670.833 478.041 672.323 478.608 673.952 479.038C678.853 480.235 683.693 480.005 688.548 478.9C691.237 478.271 693.496 476.89 695.555 475.11C695.8 474.895 696.015 474.68 696.215 474.434H705.296V474.48C703.483 485.008 690.285 487.616 680.144 487.616C667.868 487.616 664.611 485.023 660.493 480.496C659.202 479.099 658.173 476.491 657.62 475.248C657.405 474.772 656.944 474.48 656.437 474.434Z" fill="#AA4500"/>
<path d="M703.191 325.994C702.223 326.132 701.316 326.331 700.41 326.47C700.164 326.516 699.872 326.377 699.826 326.086C699.78 325.84 699.918 325.61 700.164 325.564C701.024 325.227 701.946 324.935 702.807 324.597C703.667 324.306 704.62 324.03 705.587 323.83C707.554 323.492 709.613 323.585 711.595 324.122C712.071 324.26 712.548 324.459 713.024 324.643C713.454 324.797 713.946 325.073 714.376 325.273C715.19 325.656 716.051 326.132 716.773 326.423C717.587 326.761 718.401 326.991 719.216 327.145C720.03 327.329 720.906 327.375 721.72 327.375C722.581 327.375 723.441 327.283 724.255 327.099C725.085 326.899 725.899 326.654 726.668 326.331C727.39 325.994 728.25 325.457 729.064 325.027C729.249 324.935 729.448 324.843 729.694 324.689C729.925 324.597 730.171 324.459 730.355 324.352C730.847 324.168 731.323 323.968 731.799 323.83C733.72 323.201 735.779 323.063 737.699 323.354C738.713 323.446 739.666 323.738 740.542 324.03C741.448 324.306 742.309 324.551 743.23 324.843C743.415 324.935 743.568 325.18 743.461 325.365C743.43 325.518 743.307 325.61 743.169 325.641C743.123 325.656 743.077 325.656 743.031 325.656C742.124 325.503 741.202 325.365 740.25 325.227C739.819 325.18 739.343 325.073 738.898 325.027C738.467 324.981 738.037 324.935 737.607 324.935C735.825 324.889 734.104 325.18 732.475 325.794C732.091 325.948 731.707 326.132 731.323 326.331C730.939 326.516 730.601 326.761 730.171 326.991L728.972 327.713L728.68 327.912L728.342 328.096C728.158 328.188 727.912 328.342 727.666 328.434C725.853 329.339 723.825 329.83 721.766 329.876C719.754 329.876 717.679 329.493 715.82 328.618C714.852 328.188 714.084 327.759 713.27 327.283C712.84 327.099 712.501 326.853 712.117 326.715C711.733 326.516 711.349 326.377 710.919 326.224C709.336 325.656 707.554 325.411 705.833 325.564C705.388 325.61 704.958 325.61 704.527 325.702C704.097 325.794 703.621 325.886 703.191 325.994Z" fill="#AA4500"/>
<path d="M732.429 367.566C729.587 365.985 726.514 365.218 723.303 365.11C719.938 364.972 716.681 365.448 713.516 366.691C710.581 367.903 710.105 371.786 712.455 373.643C714.606 375.377 716.681 377.295 718.786 379.014V395.081C718.693 396.278 717.879 404.38 713.024 407.695C710.105 409.659 705.772 409.567 700.256 407.404C698.489 406.682 696.461 407.603 695.739 409.368C695.078 411.148 695.939 413.158 697.767 413.88C701.27 415.215 704.527 415.936 707.508 416.043C709.29 421.261 713.9 427.982 723.057 427.982C732.214 427.982 736.839 421.169 738.575 415.936C741.202 415.706 743.999 415.03 747.025 413.88C748.792 413.158 749.653 411.148 748.992 409.368C748.27 407.603 746.257 406.682 744.475 407.404C739.005 409.567 734.672 409.659 731.753 407.695C727.528 404.872 726.237 398.058 726.13 395.326V379.551C728.204 377.817 731.031 375.899 733.09 374.18C734.35 373.167 734.78 371.878 734.488 370.297C734.242 369.054 733.474 368.18 732.429 367.566ZM694.156 379.689C699.35 373.505 705.342 368.425 712.501 364.727C713.131 364.389 713.746 364.067 714.376 363.775C719.6 361.274 724.885 361.274 730.125 363.775C738.283 367.704 744.997 373.413 750.667 380.364C756.183 387.178 760.316 394.789 763.435 402.953C766.323 410.473 768.29 418.238 769.627 426.202C769.673 426.34 769.673 426.448 769.673 426.632C767.137 428.55 764.449 430.131 761.652 431.527C755.23 434.781 748.408 436.944 741.356 438.433C735.594 439.63 729.74 440.351 723.933 440.735C723.211 440.781 722.534 440.827 721.812 440.873C719.031 441.026 716.343 440.781 713.608 440.535C709.044 440.198 704.527 439.538 700.072 438.617C691.421 436.852 683.125 434.121 675.442 429.701C675.104 429.517 674.72 429.271 674.29 428.98C674.521 427.491 674.766 426.018 675.058 424.53C676.441 416.703 678.469 409.03 681.388 401.695C684.554 393.746 688.64 386.303 694.156 379.689Z" fill="#FCFAF1"/>
<path d="M670.679 354.276C670.679 352.511 672.17 351.023 673.952 351.069C675.78 351.069 677.163 352.511 677.209 354.276C677.209 356.056 675.719 357.545 673.906 357.483C672.124 357.483 670.679 356.056 670.679 354.276Z" fill="#FCFAF1"/>
<path d="M666.608 362.195C665.025 355.811 669.097 349.289 675.581 347.954C676.349 347.8 677.209 347.708 677.978 347.616C684.615 347.662 689.931 353.033 689.839 359.601V360.169C689.793 361.044 689.455 361.765 688.779 362.425C686.428 364.681 684.369 367.228 682.449 369.868C682.111 370.343 681.727 370.635 681.158 370.773C674.766 372.553 668.19 368.671 666.608 362.195ZM673.906 357.483C675.719 357.545 677.209 356.056 677.209 354.276C677.163 352.511 675.78 351.069 673.952 351.069C672.17 351.023 670.679 352.511 670.679 354.276C670.679 356.041 672.124 357.483 673.906 357.483Z" fill="#AA4500"/>
<path d="M721.766 329.876C723.825 329.83 725.853 329.339 727.666 328.434C727.912 328.342 728.158 328.188 728.342 328.096L728.68 327.912L728.972 327.713L730.171 326.991C730.601 326.761 730.939 326.516 731.323 326.331C731.707 326.132 732.091 325.948 732.475 325.794C734.104 325.181 735.825 324.889 737.607 324.935C738.037 324.935 738.467 324.981 738.898 325.027C739.343 325.073 739.819 325.181 740.25 325.227C741.202 325.365 742.124 325.503 743.031 325.656C743.077 325.656 743.123 325.656 743.169 325.641L742.754 330.199C740.419 330.045 738.068 330.337 735.825 331.073C735.21 331.258 734.58 331.503 733.966 331.795L733.474 331.979L733.044 332.224C732.706 332.408 732.429 332.562 732.183 332.7C731.031 333.329 729.925 333.989 728.865 334.48C726.668 335.478 724.317 336.015 721.905 336.015C719.508 336.061 717.111 335.631 714.898 334.664C713.838 334.235 712.64 333.559 711.534 333.038C711.257 332.838 710.965 332.7 710.627 332.562C710.335 332.408 710.059 332.27 709.721 332.178C709.091 331.887 708.415 331.687 707.8 331.503C705.541 330.843 703.206 330.644 700.886 330.859L700.41 326.47C701.316 326.331 702.223 326.132 703.191 325.994C703.621 325.886 704.097 325.794 704.527 325.702C704.958 325.61 705.388 325.61 705.833 325.564C707.554 325.411 709.336 325.656 710.919 326.224C711.349 326.378 711.733 326.516 712.117 326.715C712.501 326.853 712.84 327.099 713.27 327.283C714.084 327.759 714.852 328.188 715.82 328.618C717.679 329.493 719.754 329.876 721.766 329.876Z" fill="#FCFAF1"/>
<path d="M703.621 332.792C702.422 332.654 701.178 332.608 699.964 332.7C699.35 332.746 698.72 332.838 698.151 332.946C697.521 333.084 696.891 333.222 696.277 333.375C695.032 333.605 693.772 333.897 692.482 334.143C692.236 334.189 692.005 334.05 691.898 333.759C691.852 333.513 692.005 333.283 692.236 333.176C693.496 332.792 694.694 332.362 695.893 331.979C697.091 331.595 698.428 331.211 699.734 330.981C700.118 330.92 700.502 330.889 700.886 330.858C703.206 330.644 705.541 330.843 707.8 331.503C708.415 331.687 709.091 331.887 709.721 332.178C710.059 332.27 710.335 332.408 710.627 332.562C710.965 332.7 711.257 332.838 711.534 333.038C712.64 333.559 713.838 334.235 714.898 334.664C717.111 335.631 719.508 336.061 721.905 336.015C724.317 336.015 726.668 335.478 728.865 334.48C729.925 333.989 731.031 333.329 732.183 332.7C732.429 332.562 732.706 332.408 733.044 332.224L733.474 331.979L733.966 331.795C734.58 331.503 735.21 331.257 735.825 331.073C738.068 330.337 740.419 330.045 742.754 330.199C743.123 330.229 743.492 330.26 743.845 330.306C745.197 330.444 746.488 330.782 747.686 331.165C748.931 331.503 750.19 331.887 751.389 332.224C751.619 332.316 751.727 332.516 751.681 332.746C751.619 332.946 751.435 333.038 751.235 332.992C749.945 332.792 748.7 332.608 747.394 332.362C746.78 332.27 746.15 332.132 745.535 332.025C745.243 331.979 744.951 331.979 744.613 331.933C744.337 331.887 743.999 331.887 743.707 331.887C741.264 331.749 738.805 332.178 736.547 332.992C735.978 333.222 735.395 333.467 734.872 333.759L734.488 333.943L734.104 334.189C733.812 334.281 733.582 334.48 733.29 334.618L731.615 335.631L731.231 335.861L730.785 336.107C730.463 336.291 730.171 336.444 729.879 336.583C728.634 337.212 727.328 337.641 725.991 337.979C724.639 338.271 723.303 338.455 721.951 338.501C719.216 338.501 716.435 337.979 713.946 336.874C712.64 336.291 711.595 335.677 710.443 335.048C710.197 334.91 709.905 334.756 709.613 334.618L709.229 334.434L708.799 334.235C708.276 333.943 707.692 333.759 707.124 333.559C706.018 333.176 704.819 332.946 703.621 332.792Z" fill="#AA4500"/>
<path d="M681.926 443.221C674.521 442.5 667.33 443.466 660.262 445.768C656.667 446.919 653.732 448.975 651.336 451.861C648.171 455.789 646.004 460.193 644.329 464.904C644.145 465.426 643.945 465.948 643.807 466.485C643.761 466.531 643.699 466.577 643.653 466.669H636.463C636.463 466.194 636.401 465.718 636.463 465.288C636.785 457.707 638.952 450.71 642.793 444.188C646.772 437.466 651.966 431.819 658.203 427.062C658.342 426.97 658.542 426.877 658.726 426.724C659.694 427.307 660.708 427.737 661.614 428.366C661.753 428.504 661.952 428.596 662.091 428.75C662.613 429.225 663.151 429.655 663.673 430.085C668.375 433.875 673.568 436.852 679.084 439.384C682.018 440.735 685.045 441.84 688.118 442.791L688.902 443.021L688.471 444.51L687.688 444.28H687.626C685.767 443.758 683.847 443.42 681.926 443.221Z" fill="#FCFAF1"/>
<path d="M788.202 466.715H775.68C775.588 466.915 775.48 467.053 775.434 467.145C774.712 468.971 773.852 470.751 773.283 472.623C773.084 473.283 772.838 473.882 772.515 474.434H743.353C741.894 472.777 741.663 470.721 741.878 468.587C742.262 464.843 743.507 461.298 745.043 457.937C746.257 455.313 748.362 453.533 750.913 452.29C753.217 451.185 755.66 450.602 758.149 450.326C764.541 449.651 770.779 450.51 776.879 452.474C779.66 453.349 781.78 454.976 783.501 457.278C785.513 460.009 786.958 463.032 788.11 466.193C788.156 466.332 788.156 466.485 788.202 466.715Z" fill="#FCFAF1"/>
<path d="M705.296 474.434H696.215C697.106 473.422 697.629 472.194 697.659 470.797C697.721 469.692 697.659 468.542 697.521 467.437C697.091 464.659 696.123 461.973 695.124 459.288C693.926 455.973 691.621 453.671 688.502 452.198C686.244 451.139 683.893 450.602 681.435 450.326C675.012 449.651 668.713 450.51 662.613 452.474C659.94 453.349 657.865 454.884 656.191 457.078C654.117 459.917 652.642 463.032 651.428 466.286C651.382 466.378 651.382 466.485 651.382 466.715H663.105C663.673 466.715 664.057 466.869 664.257 467.391C664.918 469.217 665.686 470.935 666.316 472.762C666.516 473.36 666.746 473.913 667.038 474.434H628.427V466.715C628.443 466.378 628.489 465.994 628.489 465.672C629.011 458.045 630.978 451.37 633.528 445.722C635.741 441.349 638.276 437.236 641.303 433.446C643.945 430.085 646.88 427.016 650.091 424.192C651.535 422.995 653.118 421.798 654.839 420.647C654.654 420.402 654.501 420.11 654.316 419.88C648.939 412.299 643.853 402.892 642.409 393.746C642.224 392.595 642.071 391.398 641.979 390.186C638.322 390.477 636.217 389.863 635.633 389.618C635.541 389.572 635.495 389.572 635.495 389.572C634.819 389.234 634.204 388.85 633.62 388.421C633.482 388.267 633.282 388.221 633.052 388.037C630.271 385.352 628.012 381.469 626.568 378.538C626.476 378.308 626.368 378.108 626.276 377.924C625.8 376.865 625.324 375.807 624.893 374.702C624.832 374.656 624.786 374.563 624.786 374.517C624.74 374.41 624.694 374.364 624.694 374.364C624.31 373.32 623.879 372.262 623.449 371.249C621.191 365.448 618.886 359.647 616.673 353.801C612.218 342.046 614.369 328.956 622.205 319.426C625.416 315.528 629.303 312.566 633.866 310.402C638.814 308.055 643.515 305.369 647.879 302.054C649.753 300.673 651.535 299.185 653.348 297.85C657.297 294.919 661.522 292.417 666.024 290.56C671.171 288.443 676.487 287.246 682.065 287.384L693.588 287.767C701.946 288.581 710.243 289.21 718.555 289.21C726.621 289.256 745.289 288.535 746.488 287.967L754.754 287.629C754.892 287.629 755.03 287.629 755.184 287.583C762.912 286.77 770.011 288.918 776.832 292.325C780.766 294.289 784.422 296.699 787.818 299.522C793.196 303.927 799.111 307.533 805.395 310.495C811.541 313.472 816.396 317.891 819.838 323.784C822.48 328.25 823.971 333.084 824.447 338.271C824.985 343.734 824.216 348.997 822.25 354.092C819.561 360.936 816.918 367.796 814.137 374.656V374.364C814.137 374.364 810.726 383.479 805.487 388.329C805.487 388.329 805.349 388.421 805.149 388.559C804.058 389.418 802.752 389.955 801.369 390.247C801.216 390.293 801.078 390.293 800.924 390.339C799.772 390.631 798.481 390.723 796.944 390.677C796.852 391.674 796.76 392.733 796.606 393.746C795.224 402.892 790.461 412.299 785.421 419.88C787.157 421.031 788.74 422.228 790.169 423.425C793.395 426.248 796.315 429.318 798.957 432.678C801.984 436.469 804.535 440.581 806.732 444.955C809.282 450.602 811.249 457.278 811.771 464.905C811.771 465.227 811.833 465.61 811.833 465.948V474.434H783.839H772.515C772.838 473.882 773.083 473.283 773.283 472.624C773.852 470.751 774.712 468.971 775.434 467.145C775.48 467.053 775.588 466.915 775.68 466.715H788.202C788.156 466.485 788.156 466.332 788.11 466.194C786.958 463.032 785.513 460.009 783.501 457.278C781.78 454.976 779.659 453.349 776.879 452.474C770.779 450.51 764.541 449.651 758.149 450.326C755.66 450.602 753.217 451.185 750.913 452.29C748.362 453.533 746.257 455.313 745.043 457.938C743.507 461.298 742.262 464.843 741.878 468.588C741.663 470.721 741.894 472.777 743.353 474.434H705.296ZM815.766 351.499C817.302 347.57 817.871 343.534 817.548 339.268C817.057 333.176 814.859 327.759 810.819 323.155C808.176 320.132 804.919 317.983 801.369 316.295C795.07 313.334 789.262 309.681 783.885 305.277C782.394 304.08 780.812 302.929 779.183 301.824C775.004 298.939 770.487 296.699 765.555 295.394C763.296 294.78 761.038 294.397 758.733 294.335C756.72 294.335 754.754 294.627 752.772 294.719C746.687 295.103 740.588 295.594 734.488 295.824C728.48 296.069 722.488 296.162 716.481 296.115C711.825 296.115 707.17 295.87 702.515 295.594C696.507 295.256 690.469 294.826 684.461 294.397C677.931 293.952 671.786 295.302 665.978 298.233C661.952 300.244 658.296 302.73 654.793 305.507C653.84 306.274 652.872 307.042 651.873 307.763C650.859 308.53 649.845 309.206 648.847 309.927C644.852 312.658 640.58 314.914 636.263 317.017C633.482 318.367 630.978 320.193 628.873 322.434C621.575 330.107 619.408 341.232 623.203 351.361C624.939 356.01 626.752 360.66 628.581 365.264C629.979 368.671 631.362 372.108 632.852 375.469C633.666 377.249 634.773 378.922 635.833 380.61C636.309 381.423 637.031 382.083 637.707 382.758C638.568 383.525 638.952 383.479 639.72 382.62C640.627 381.561 641.303 380.318 641.548 378.876C641.733 377.479 641.933 376.144 642.117 374.748C642.363 373.32 642.547 371.832 642.839 370.343V370.205C643.699 365.018 644.714 359.893 645.912 354.752C647.879 346.511 650.229 338.363 653.456 330.49C655.423 325.748 657.635 321.099 660.6 316.878C661.415 315.727 662.337 314.577 663.289 313.564C664.687 312.091 666.9 312.091 668.283 313.426C669.635 314.761 669.635 316.924 668.283 318.413C667.514 319.272 666.792 320.193 666.178 321.145C664.488 323.446 663.197 325.948 661.952 328.526C658.296 336.245 655.761 344.348 653.64 352.604C651.873 359.601 650.475 366.691 649.323 373.796C648.985 375.945 648.601 378.062 648.462 380.165C648.309 383.096 648.416 385.965 648.693 388.851C649.031 391.828 649.661 394.789 650.475 397.72C652.488 405.056 655.853 411.624 660.6 417.332C662.475 419.588 664.595 421.737 666.946 423.716C667.222 423.946 667.514 424.192 667.898 424.484C667.991 424.039 668.098 423.808 668.098 423.563C669.343 416.565 671.064 409.659 673.476 402.892C676.779 393.546 681.25 384.83 687.396 376.957C693.972 368.671 701.839 361.949 711.487 357.438C718.601 354.092 725.792 354.092 732.905 357.391C740.25 360.844 746.58 365.648 752.157 371.494C758.303 377.97 763.143 385.352 766.938 393.454C771.025 402.033 773.76 411.102 775.68 420.402C775.726 420.693 775.818 420.923 775.911 421.353C776.249 421.031 776.494 420.785 776.74 420.586C777.739 419.542 778.661 418.483 779.567 417.332C782.778 413.358 785.329 408.892 787.203 404.043C789.032 399.255 790.169 394.268 790.553 389.142C790.614 389.035 790.614 388.897 790.614 388.804C790.66 388.375 790.66 387.884 790.707 387.454C790.845 385.06 790.891 382.574 790.614 380.165C789.984 375.515 789.216 370.911 788.356 366.307C786.773 357.637 784.745 348.997 781.872 340.665C779.091 332.562 776.064 324.597 770.349 317.937C769.442 316.878 769.442 315.528 770.103 314.285C770.733 313.088 771.793 312.474 773.176 312.474C774.328 312.474 775.25 312.996 776.018 313.855C777.893 315.912 779.429 318.214 780.766 320.623C783.931 326.132 786.343 331.979 788.356 338.025C791.091 346.036 793.149 354.184 794.732 362.471C795.5 366.691 796.222 370.865 796.898 375.085V375.177C797.083 376.236 797.283 377.295 797.421 378.4C797.667 379.981 798.189 381.377 799.249 382.574C800.017 383.479 800.402 383.525 801.308 382.758C801.692 382.421 802.076 382.037 802.414 381.607C802.998 380.886 803.567 380.165 803.997 379.351C805.103 377.341 806.301 375.285 807.223 373.121C810.096 365.924 812.939 358.742 815.766 351.499ZM802.522 466.669V465.518C802.322 459.196 800.74 453.196 797.959 447.533C793.964 439.338 788.11 432.724 780.965 427.215C780.766 427.062 780.581 427.016 780.336 426.878C780.09 427.108 779.859 427.353 779.613 427.553C778.323 428.642 777.063 429.793 775.726 430.806C769.872 435.456 763.389 438.863 756.382 441.41C755.322 441.794 754.262 442.177 753.156 442.454C752.557 442.668 751.957 442.883 751.343 443.067C751.143 443.144 750.928 443.206 750.713 443.267C750.283 443.42 749.899 443.512 749.468 443.651C745.243 444.848 740.926 445.722 736.501 446.336C732.66 446.919 728.726 447.303 724.839 447.64C722.488 447.871 720.138 447.978 717.833 447.871C711.872 447.533 705.972 446.919 700.118 445.722C696.338 445.001 692.589 444.111 688.902 443.021L688.118 442.791C685.045 441.84 682.018 440.735 679.084 439.384C673.568 436.852 668.375 433.875 663.673 430.085C663.151 429.655 662.613 429.225 662.091 428.75C661.952 428.596 661.753 428.504 661.614 428.366C660.708 427.737 659.694 427.307 658.726 426.724C658.542 426.878 658.342 426.97 658.204 427.062C651.966 431.819 646.772 437.466 642.793 444.188C638.952 450.71 636.785 457.707 636.463 465.288C636.401 465.718 636.463 466.194 636.463 466.669H643.653C643.699 466.577 643.761 466.531 643.807 466.485C643.945 465.948 644.145 465.426 644.329 464.905C646.004 460.193 648.171 455.789 651.336 451.861C653.732 448.976 656.667 446.919 660.262 445.768C667.33 443.466 674.521 442.5 681.926 443.221C683.847 443.42 685.767 443.758 687.626 444.28H687.688L688.471 444.51C689.24 444.771 689.993 445.062 690.745 445.385C695.554 447.441 699.196 450.71 701.316 455.544C701.946 457.032 702.515 458.567 702.991 460.101C703.621 462.265 704.143 464.413 704.773 466.669H734.872C734.918 466.439 735.01 466.286 735.056 466.102C735.64 462.541 736.747 459.196 738.083 455.881C739.773 451.907 742.462 448.837 746.196 446.674C747.394 445.998 748.608 445.431 749.852 444.955C750.237 444.801 750.667 444.663 751.097 444.525C751.312 444.449 751.527 444.387 751.742 444.326C752.372 444.142 752.987 443.988 753.647 443.85C754.554 443.651 755.414 443.512 756.336 443.374C759.686 442.883 763.097 442.883 766.461 443.175C771.025 443.558 775.48 444.418 779.813 445.906C782.932 447.011 785.513 448.791 787.68 451.231C788.356 452.045 789.032 452.858 789.646 453.733C792.197 457.416 794.071 461.452 795.5 465.672C795.608 465.994 795.746 466.332 795.838 466.669H802.522ZM769.673 426.632C769.673 426.448 769.673 426.34 769.627 426.202C768.29 418.238 766.323 410.473 763.435 402.953C760.316 394.789 756.183 387.178 750.667 380.364C744.997 373.413 738.283 367.704 730.125 363.775C724.885 361.274 719.6 361.274 714.376 363.775C713.746 364.067 713.131 364.389 712.501 364.727C705.342 368.425 699.35 373.505 694.156 379.689C688.64 386.303 684.554 393.746 681.388 401.695C678.469 409.03 676.441 416.703 675.058 424.53C674.766 426.018 674.521 427.491 674.29 428.98C674.72 429.271 675.104 429.517 675.442 429.701C683.125 434.121 691.421 436.852 700.072 438.617C704.527 439.538 709.044 440.198 713.608 440.535C716.343 440.781 719.031 441.026 721.812 440.873C722.534 440.827 723.211 440.781 723.933 440.735C729.74 440.351 735.594 439.63 741.356 438.433C748.408 436.944 755.23 434.781 761.652 431.527C764.449 430.131 767.137 428.55 769.673 426.632Z" fill="#AA4500"/>
<path d="M666.562 380.548C667.56 380.548 668.375 381.423 668.375 382.421C668.375 383.418 667.56 384.247 666.562 384.247C665.563 384.247 664.733 383.433 664.733 382.421C664.733 381.408 665.548 380.548 666.562 380.548Z" fill="#AA4500"/>
</g>
<defs>
<clipPath id="clip0_17_370">
<rect width="462" height="138" fill="white" transform="translate(489 501)"/>
</clipPath>
<clipPath id="clip1_17_370">
<rect width="211" height="201" fill="white" transform="translate(614 287)"/>
</clipPath>
</defs>
</svg>
