<svg width="40" height="40" viewBox="0 0 40 40" fill="none" xmlns="http://www.w3.org/2000/svg">
<g clip-path="url(#clip0_56_646)">
<circle cx="20" cy="20" r="20" fill="white"/>
<path d="M26.9044 16.25C26.9044 16.1119 27.0163 16 27.1544 16H32.8379C32.976 16 33.0879 16.1119 33.0879 16.25V17.2785C33.0879 17.4166 32.976 17.5285 32.8379 17.5285H28.9724C28.8343 17.5285 28.7224 17.6404 28.7224 17.7785V19.0502C28.7224 19.1883 28.8343 19.3002 28.9724 19.3002H32.479C32.617 19.3002 32.729 19.4121 32.729 19.5502V20.4629C32.729 20.601 32.617 20.7129 32.479 20.7129H28.9724C28.8343 20.7129 28.7224 20.8248 28.7224 20.9629V22.4893C28.7224 22.6274 28.8343 22.7393 28.9724 22.7393H32.9306C33.0686 22.7393 33.1806 22.8513 33.1806 22.9893V24.0178C33.1806 24.1559 33.0686 24.2678 32.9306 24.2678H27.1544C27.0163 24.2678 26.9044 24.1559 26.9044 24.0178V16.25Z" fill="#AA4500"/>
<path d="M17.974 16.25C17.974 16.1119 18.0859 16 18.224 16H19.6415C19.7279 16 19.8082 16.0446 19.8538 16.1179L23.2268 21.5396C23.2295 21.544 23.2343 21.5466 23.2394 21.5466V21.5466C23.2476 21.5466 23.2543 21.54 23.2543 21.5317V16.25C23.2543 16.1119 23.3662 16 23.5043 16H24.7065C24.8446 16 24.9565 16.1119 24.9565 16.25V24.0178C24.9565 24.1559 24.8446 24.2678 24.7065 24.2678H23.2775C23.1911 24.2678 23.1108 24.2232 23.0651 24.1498L19.7037 18.7398C19.701 18.7354 19.6962 18.7328 19.6911 18.7328V18.7328C19.6829 18.7328 19.6762 18.7394 19.6762 18.7477V24.0178C19.6762 24.1559 19.5643 24.2678 19.4262 24.2678H18.224C18.0859 24.2678 17.974 24.1559 17.974 24.0178V16.25Z" fill="#AA4500"/>
<path d="M14.2113 16.25C14.2113 16.1119 14.3232 16 14.4613 16H15.7793C15.9174 16 16.0293 16.1119 16.0293 16.25V24.0178C16.0293 24.1559 15.9174 24.2678 15.7793 24.2678H14.4613C14.3232 24.2678 14.2113 24.1559 14.2113 24.0178V16.25Z" fill="#AA4500"/>
<path d="M7 16.25C7 16.1119 7.11193 16 7.25 16H8.568C8.70607 16 8.818 16.1119 8.818 16.25V22.4893C8.818 22.6274 8.92993 22.7393 9.068 22.7393H12.5977C12.7358 22.7393 12.8477 22.8513 12.8477 22.9893V24.0178C12.8477 24.1559 12.7358 24.2678 12.5977 24.2678H7.25C7.11193 24.2678 7 24.1559 7 24.0178V16.25Z" fill="#AA4500"/>
</g>
<defs>
<clipPath id="clip0_56_646">
<rect width="40" height="40" fill="white"/>
</clipPath>
</defs>
</svg>
