<svg width="107" height="32" viewBox="0 0 107 32" fill="none" xmlns="http://www.w3.org/2000/svg">
<g clip-path="url(#clip0_52_568)">
<path d="M13.1748 28.0555C10.8189 28.0555 8.47224 27.3639 6.88144 26.5566C5.80374 26.0103 4.7996 25.3041 3.89661 24.4601C3.15546 23.7667 2.95501 22.6467 3.40926 21.7382C3.44971 21.6572 3.48282 21.5801 3.51408 21.5102C3.60051 21.3188 3.6888 21.1185 3.83408 20.9345C4.18902 20.4803 4.84741 20.3993 5.30166 20.7561C5.74672 21.1055 5.83317 21.7438 5.50029 22.198C5.47454 22.2439 5.45062 22.3009 5.42304 22.3635C5.38074 22.4591 5.33293 22.5639 5.27776 22.6724C5.23362 22.7607 5.25202 22.8655 5.32373 22.9318C6.08144 23.6398 6.92189 24.2319 7.82488 24.6899C10.2047 25.8964 14.9366 26.9115 17.5077 24.4987C18.8226 23.2646 19.3632 20.7009 18.9882 17.466C18.6442 14.4959 17.5757 11.4872 16.2662 9.80257C15.2732 8.52257 13.1196 6.31199 9.86443 5.87245C8.97798 5.75292 6.90902 5.47337 4.99821 6.7166C3.22718 7.8697 1.68419 10.2605 2.16971 12.2651C2.42902 13.3336 3.28235 14.3488 4.51086 15.0495C6.34811 16.0977 8.70765 16.2982 10.9881 15.6012C11.5417 15.4338 12.1247 15.7428 12.2939 16.2964C12.4631 16.8481 12.1522 17.4329 11.5987 17.6022C8.77018 18.4665 5.80925 18.198 3.47546 16.8665C1.74856 15.8807 0.53293 14.3837 0.139367 12.7561C-0.419714 10.4499 0.680053 7.03108 3.85982 4.96394C6.42166 3.29775 9.12328 3.66188 10.1421 3.79981C13.1049 4.1989 15.8653 5.87429 17.9195 8.5189C19.4461 10.4849 20.6819 13.9019 21.0662 17.2233C21.331 19.5148 21.4083 23.706 18.9403 26.0214C17.3568 27.5092 15.2603 28.0518 13.1748 28.0518V28.0555ZM5.48926 22.2164C5.48926 22.2164 5.48373 22.2219 5.48189 22.2255C5.48373 22.2219 5.48742 22.2201 5.48926 22.2164Z" fill="white"/>
<path d="M22.0226 14.7387C21.4469 14.7387 20.9799 14.2734 20.9762 13.6978C20.9743 13.1203 21.4395 12.6495 22.0171 12.6477C23.2751 12.6422 24.1595 11.8477 24.2552 11.1176C24.3122 10.6854 24.1448 10.0564 23.7771 9.79528C23.5178 9.61138 23.1168 9.60401 22.7656 9.59667C22.3279 9.58747 21.4194 9.56907 21.1416 8.70104C20.8695 7.85322 21.5629 7.31437 21.8957 7.05506C22.0999 6.8969 22.3114 6.73138 22.4456 6.53643C22.9367 5.81918 22.692 4.29827 21.9306 3.34195C20.9082 2.05643 18.7416 1.70701 17.2962 2.59528C16.5384 3.06058 16.132 3.77965 15.9224 4.30195C15.709 4.83896 15.1003 5.09827 14.5633 4.88494C14.0263 4.6716 13.7651 4.06286 13.9803 3.52586C14.3058 2.71115 14.955 1.57827 16.2 0.813214C18.5669 -0.641498 21.8699 -0.0916116 23.5656 2.03989C24.7463 3.52402 25.2962 6.03805 24.1853 7.69322C24.4501 7.77781 24.7205 7.90288 24.9816 8.08678C26.1072 8.88126 26.4695 10.3194 26.3279 11.3898C26.0778 13.2877 24.2295 14.7277 22.0263 14.7387H22.0208H22.0226Z" fill="white"/>
<path d="M29.4811 15.8667C29.7819 15.4517 29.8552 15.1634 29.8552 14.875C29.8552 14.6429 29.8185 14.5515 29.7232 14.5515C29.6499 14.5515 29.5325 14.5866 29.4077 14.5866C28.8648 14.5866 28.3219 14.2068 28.3219 13.5246C28.3219 12.772 28.8869 12.3219 29.5617 12.3219C30.5009 12.3219 31.0805 12.9549 31.0805 13.9747C31.0805 14.8961 30.8017 15.6276 30.1781 16.2957C29.8259 16.7317 29.4077 16.978 29.0189 17.2172C28.9454 17.2733 28.8721 17.2874 28.8134 17.2874C28.6448 17.2874 28.4393 17.0693 28.4393 16.9287C28.4393 16.8373 28.476 16.7669 28.5861 16.6967C28.9822 16.4293 29.283 16.1551 29.4885 15.8667" fill="white"/>
<path d="M37.542 21.3394C39.8048 21.8912 40.8275 22.5997 40.8275 24.4118C40.8275 26.224 39.3243 27.4022 36.7438 27.4022C34.1635 27.4022 32.7841 26.0525 32.5672 24.7549C32.5516 24.6579 32.5516 24.5834 32.5516 24.5088C32.5516 23.9942 32.9468 23.7258 33.683 23.7258C34.2409 23.7258 34.4734 23.9942 34.5587 24.4864C34.698 25.4186 35.628 25.881 36.7827 25.881C38.2084 25.881 38.9212 25.344 38.9212 24.3746C38.9212 23.6139 38.4641 23.3827 36.8601 22.98L36.3409 22.8458C34.1169 22.2715 32.8694 21.757 32.8694 19.8478C32.8694 18.2296 34.2796 17.1035 36.6974 17.1035C38.7585 17.1035 39.9828 17.8269 40.4014 19.2811C40.4401 19.393 40.4401 19.5122 40.4401 19.6018C40.4401 20.079 40.0836 20.3848 39.3707 20.3848C38.9523 20.3848 38.6347 20.2357 38.5184 19.7957C38.3014 19.035 37.7048 18.6323 36.6742 18.6323C35.4265 18.6323 34.7912 19.0722 34.7912 19.8478C34.7912 20.6682 35.442 20.8397 36.9918 21.2051L37.5497 21.3394H37.542Z" fill="white"/>
<path d="M52.7868 12.5057C55.8052 12.5057 57.3069 13.7423 57.3069 16.1858C57.3069 17.616 56.7344 18.6218 55.5226 19.1954C57.3887 19.7094 58.2584 20.9459 58.2584 22.8902C58.2584 25.7658 56.489 27.2184 52.9727 27.2184H49.3967C47.605 27.2184 47.04 26.6821 47.04 25.0283V14.6884C47.04 13.0719 47.6274 12.5132 49.4191 12.5132H52.7868V12.5057ZM49.6495 14.2564C49.2703 14.2564 49.077 14.4501 49.077 14.83V18.5621H52.7272C54.4372 18.5621 55.24 17.683 55.24 16.3496C55.24 15.0162 54.4447 14.2564 52.8463 14.2564H49.6495ZM49.077 24.8494C49.077 25.2517 49.2629 25.4379 49.6272 25.4379H53.0098C55.0988 25.4379 56.1471 24.5589 56.1471 22.8456C56.1471 21.1322 55.0989 20.2755 53.0247 20.2755H49.0696V24.8494H49.077Z" fill="white"/>
<path d="M68.3201 24.3194C68.3201 25.0418 68.4177 25.5779 68.6283 25.9354C68.7035 26.0693 68.7411 26.2034 68.7411 26.3523C68.7411 26.9629 68.1246 27.2832 67.6283 27.2832C67.32 27.2832 67.0718 27.1342 66.8989 26.829C66.8389 26.7173 66.7261 26.4267 66.6659 26.2034C65.6432 27.0597 64.5905 27.4022 63.2446 27.4022C61.2069 27.4022 59.9136 26.3002 59.9136 24.4683C59.9136 22.7555 60.8985 21.7651 63.1093 21.1917C64.0115 20.9608 65.0869 20.7747 66.4779 20.6555V20.2162C66.4779 19.1662 65.8086 18.6152 64.5529 18.6152C63.0942 18.6152 62.628 19.2406 62.3422 20.0821C62.1918 20.5214 61.8461 20.6704 61.5001 20.6704C60.9211 20.6704 60.4249 20.3651 60.4249 19.8885C60.4249 19.7917 60.44 19.68 60.4851 19.5608C61.064 17.9003 62.4625 17.1035 64.583 17.1035C67.1773 17.1035 68.3352 18.131 68.3352 20.2237V24.297L68.3201 24.3194ZM66.4704 22.0928C65.3349 22.1896 64.3349 22.3981 63.4326 22.6811C62.3723 23.0237 61.7784 23.5747 61.7784 24.4683C61.7784 25.3619 62.4701 25.8981 63.5078 25.8981C64.5454 25.8981 65.5229 25.399 66.4704 24.4906V22.0928Z" fill="white"/>
<path d="M72.6576 21.9049C73.0632 21.4618 73.4464 21.0186 73.807 20.6581L76.88 17.5265C77.0678 17.3313 77.3008 17.241 77.5488 17.241C78.0522 17.241 78.5706 17.7068 78.5706 18.2023C78.5706 18.4127 78.4955 18.6079 78.2851 18.8181L75.385 21.5293L78.6683 25.9079C78.8035 26.0805 78.8562 26.2759 78.8562 26.4485C78.8562 26.9893 78.3226 27.3874 77.7966 27.3874C77.5262 27.3874 77.2782 27.2746 77.0904 27.0044L74.0325 22.7385L72.6501 24.0077V26.5012C72.6501 27.117 72.3419 27.4023 71.6883 27.4023C71.0722 27.4023 70.7642 27.117 70.7642 26.5012V13.2081C70.7642 12.6148 71.0722 12.3219 71.6883 12.3219C72.3419 12.3219 72.6501 12.6073 72.6501 13.2081V21.9049H72.6576Z" fill="white"/>
<path d="M81.8395 22.7488C81.9384 24.2925 82.8289 25.8586 84.6251 25.8586C85.6603 25.8586 86.4137 25.3216 86.9008 24.2179C87.076 23.8152 87.3879 23.6437 87.738 23.6437C88.2631 23.6437 88.8492 24.0016 88.8492 24.464C88.8492 24.5982 88.8113 24.7325 88.7351 24.8816C87.8827 26.5595 86.5355 27.4022 84.6251 27.4022C81.7633 27.4022 79.9595 25.344 79.9595 22.2342C79.9595 19.6614 81.4742 17.1035 84.6479 17.1035C87.8219 17.1035 88.971 19.9224 88.971 21.3542C88.971 22.2864 88.5068 22.7488 87.5859 22.7488H81.847H81.8395ZM86.878 21.2275C87.015 21.2275 87.0912 21.1306 87.0912 21.0187L87.0683 20.944C86.779 19.4003 85.919 18.6397 84.6404 18.6397C83.2551 18.6397 82.1895 19.5942 81.8927 21.2349H86.878V21.2275Z" fill="white"/>
<path d="M92.771 26.5126C92.771 27.1083 92.4301 27.4022 91.779 27.4022C91.1278 27.4022 90.8101 27.1158 90.8101 26.5126V18.0835C90.8101 17.503 91.151 17.2165 91.8022 17.2165C92.4533 17.2165 92.771 17.503 92.771 18.0835V18.7395C93.0888 18.2344 93.4997 17.8725 93.9027 17.6011C94.4608 17.2317 95.0344 17.1035 95.9024 17.1035C96.6155 17.1035 96.879 17.3749 96.879 17.9478C96.879 18.6038 96.5613 18.9355 95.9257 18.9355C95.011 18.9355 94.4608 19.0336 94.0035 19.3954C93.4454 19.8403 93.0113 20.5339 92.771 21.5366V26.5126Z" fill="white"/>
<path d="M101.396 22.6998C101.707 23.457 101.98 24.2586 102.17 24.9043C102.383 24.2214 102.618 23.4643 102.884 22.7221L104.706 17.6898C104.857 17.289 105.154 17.1035 105.541 17.1035C106.163 17.1035 106.626 17.4597 106.626 17.8976C106.626 18.009 106.611 18.1277 106.55 18.2613L102.261 29.3058C101.563 31.1093 100.492 32 99.0577 32C98.2833 32 97.7976 31.9035 97.3649 31.6808C97.0157 31.4878 96.879 31.2429 96.879 30.961C96.879 30.3374 97.3041 29.8624 97.7747 29.8624C97.9342 29.8624 98.1088 29.8995 98.2833 29.996C98.5339 30.1296 98.8301 30.241 99.0577 30.241C99.6195 30.241 100.105 29.8624 100.477 28.8752L101.191 26.9603L97.5243 18.3206C97.4635 18.187 97.4485 18.0758 97.4485 17.957C97.4485 17.4819 97.9342 17.1258 98.5718 17.1258C98.9817 17.1258 99.2475 17.3112 99.4069 17.6973L101.388 22.7072L101.396 22.6998Z" fill="white"/>
</g>
<defs>
<clipPath id="clip0_52_568">
<rect width="106.72" height="32" fill="white"/>
</clipPath>
</defs>
</svg>
