<svg width="1118" height="360" viewBox="0 0 1118 360" fill="none" xmlns="http://www.w3.org/2000/svg">
<path d="M133.518 284.468C109.643 284.468 85.861 277.456 69.7392 269.27C58.8174 263.732 48.641 256.571 39.4898 248.013C31.9786 240.982 29.9472 229.626 34.5508 220.414C34.9607 219.593 35.2962 218.811 35.6131 218.102C36.489 216.162 37.3838 214.131 38.8561 212.265C42.4532 207.66 49.1256 206.839 53.7292 210.456C58.2395 214 59.1156 220.471 55.7421 225.077C55.4812 225.542 55.2388 226.12 54.9592 226.754C54.5305 227.724 54.046 228.787 53.4869 229.887C53.0395 230.782 53.226 231.845 53.9528 232.517C61.6317 239.695 70.1492 245.7 79.3004 250.343C103.418 262.576 151.373 272.868 177.43 248.404C190.755 235.891 196.234 209.897 192.434 177.097C188.947 146.981 178.119 116.474 164.849 99.3934C154.784 86.4149 132.959 64.0009 99.9701 59.5442C90.9864 58.3322 70.0188 55.4977 50.6538 68.1034C32.7056 79.7952 17.0683 104.037 21.9887 124.362C24.6167 135.196 33.2647 145.49 45.7149 152.594C64.3343 163.223 88.2467 165.255 111.358 158.188C116.968 156.491 122.876 159.624 124.591 165.238C126.306 170.831 123.156 176.761 117.546 178.477C88.8804 187.241 58.8732 184.519 35.2216 171.018C17.7206 161.023 5.40092 145.844 1.4124 129.341C-4.25354 105.957 6.89192 71.292 39.117 50.3324C65.0797 33.4381 92.4589 37.1301 102.784 38.5287C132.81 42.5753 160.786 59.5629 181.604 86.3778C197.074 106.312 209.599 140.958 213.494 174.636C216.177 197.87 216.96 240.367 191.949 263.843C175.901 278.929 154.654 284.431 133.518 284.431V284.468ZM55.6304 225.263C55.6304 225.263 55.5743 225.318 55.5556 225.356C55.5743 225.318 55.6117 225.301 55.6304 225.263Z" fill="#EED4B2"/>
<path d="M223.185 149.443C217.351 149.443 212.618 144.725 212.581 138.888C212.561 133.033 217.276 128.26 223.13 128.241C235.878 128.185 244.842 120.129 245.812 112.726C246.389 108.344 244.693 101.967 240.967 99.3189C238.338 97.4542 234.275 97.3796 230.716 97.3051C226.279 97.2118 217.072 97.0252 214.257 88.2239C211.499 79.6274 218.527 74.1638 221.899 71.5345C223.968 69.9308 226.112 68.2525 227.473 66.2759C232.449 59.0034 229.97 43.5822 222.253 33.8856C211.891 20.8511 189.935 17.3081 175.286 26.3147C167.607 31.0326 163.488 38.3236 161.363 43.6195C159.201 49.0644 153.032 51.6937 147.59 49.5307C142.148 47.3675 139.501 41.1953 141.682 35.7503C144.98 27.4896 151.56 16.0028 164.177 8.24555C188.164 -6.50445 221.638 -0.928893 238.823 20.6834C250.788 35.7316 256.361 61.2226 245.103 78.0051C247.787 78.8628 250.527 80.131 253.173 81.9956C264.581 90.0512 268.252 104.633 266.817 115.486C264.282 134.73 245.551 149.331 223.223 149.443H223.167H223.185Z" fill="#EED4B2"/>
<path d="M299.386 120.946C308.342 120.402 319.918 125.14 322.558 138.271C326.326 157.016 315.559 173.261 299.51 179.647C294.159 181.776 288.094 179.163 285.965 173.812C283.836 168.46 286.449 162.396 291.8 160.266C299.577 157.171 303.668 150.139 302.109 142.382C302.064 142.156 302.01 142.032 301.985 141.979C301.858 141.908 301.409 141.722 300.649 141.768C300.413 141.782 300.195 141.822 300.001 141.869C299.254 146.896 294.934 150.757 289.699 150.757C283.939 150.757 279.27 146.086 279.269 140.327C279.269 127.018 291.405 121.43 299.386 120.946Z" fill="#EED4B2"/>
<path d="M572.831 253.003C572.83 247.756 571.722 244.448 570.315 242.223C568.913 240.007 566.7 238.052 563.121 236.365C555.388 232.718 543.416 231.243 526.845 230.593C521.169 230.371 516.715 225.646 516.826 219.967C516.937 214.288 521.572 209.741 527.252 209.741C538.93 209.741 553.17 207.426 562.929 201.571C567.632 198.748 570.84 195.381 572.593 191.465C574.308 187.633 575.098 182.238 573.144 174.419C568.9 157.444 553.323 149.299 536.041 148.685C527.537 148.384 519.806 150.052 514.604 152.665C509.093 155.433 508.712 157.845 508.712 158.368C509.029 178.46 510.965 209.382 509.908 235.086C509.375 248.037 508.072 260.655 505.117 270.68C502.395 279.915 497.029 291.104 485.363 294.022C479.775 295.418 474.112 292.023 472.715 286.436C471.318 280.848 474.714 275.186 480.3 273.788C480.346 273.776 480.449 273.749 480.647 273.603C480.87 273.439 481.257 273.09 481.756 272.407C482.811 270.966 484.005 268.528 485.11 264.78C487.325 257.262 488.557 246.703 489.071 234.226C490.102 209.141 488.191 180.288 487.856 158.531C487.855 158.477 487.852 158.422 487.852 158.368C487.852 146.339 496.638 138.349 505.242 134.027C514.155 129.55 525.491 127.441 536.777 127.841C559.074 128.631 585.987 139.801 593.377 169.357C596.25 180.849 595.593 191.148 591.635 199.99C587.891 208.354 581.617 214.46 574.645 218.843C579.89 221.738 584.528 225.683 587.938 231.072C591.902 237.337 593.69 244.732 593.69 253.003C593.69 272.54 583.6 286.259 569.73 293.033C556.433 299.527 540.132 299.46 526.799 293.399C521.556 291.016 519.237 284.833 521.62 279.589C524.004 274.346 530.186 272.027 535.43 274.41C543.341 278.006 553.114 277.939 560.579 274.293C567.47 270.928 572.831 264.367 572.831 253.003Z" fill="#EED4B2"/>
<path d="M607.594 270.386C607.594 253.722 616.273 242.354 627.602 237.044C638.079 232.133 651.202 232.331 660.506 238.534C665.297 241.729 666.59 248.204 663.395 252.996C660.2 257.787 653.725 259.08 648.933 255.886C646.649 254.364 641.424 253.596 636.451 255.927C632.33 257.859 628.454 261.943 628.454 270.386C628.454 274.019 629.46 276.083 630.525 277.383C631.69 278.803 633.574 280.079 636.361 280.955C642.28 282.815 649.854 282.094 654.474 280.114C659.768 277.845 665.898 280.297 668.167 285.591C670.436 290.885 667.984 297.015 662.69 299.284C653.791 303.098 641.086 304.308 630.107 300.857C624.444 299.077 618.723 295.887 614.396 290.608C609.969 285.209 607.594 278.34 607.594 270.386ZM671.328 233.69C671.328 224.017 669.512 217.493 666.617 213.585C664.165 210.275 659.894 207.425 650.857 207.425C645.099 207.425 641.534 210.035 639.156 213.197C637.901 214.864 637.045 216.63 636.553 218.066C636.266 218.904 636.179 219.386 636.153 219.541C636.484 224.898 632.662 229.703 627.255 230.492C621.555 231.323 616.26 227.376 615.429 221.676C614.907 218.099 615.829 214.198 616.817 211.31C617.955 207.987 619.794 204.232 622.483 200.658C627.991 193.336 637.302 186.565 650.857 186.565C664.996 186.565 676.176 191.441 683.38 201.167C690.142 210.296 692.188 222.12 692.188 233.69C692.188 237.951 691.792 243.628 691.475 249.058C691.144 254.731 690.866 260.551 690.977 265.912C691.092 271.422 691.612 275.647 692.497 278.394C692.744 279.159 692.962 279.637 693.112 279.922C698.107 281.769 700.965 287.154 699.559 292.4C698.068 297.963 692.346 301.265 686.783 299.774C678.304 297.502 674.417 290.292 672.645 284.791C670.814 279.112 670.252 272.454 670.125 266.346C669.995 260.09 670.32 253.554 670.653 247.843C671 241.89 671.328 237.155 671.328 233.69Z" fill="#EED4B2"/>
<path d="M711.886 285.836V131.33C711.886 125.57 716.556 120.9 722.316 120.9C728.076 120.9 732.746 125.57 732.746 131.33V285.836C732.746 291.596 728.076 296.266 722.316 296.266C716.556 296.266 711.886 291.596 711.886 285.836ZM773.689 187.339C773.689 181.579 778.359 176.909 784.119 176.909C789.878 176.909 794.549 181.579 794.549 187.339C794.549 203.608 790.174 216.51 780.822 225.169C780.532 225.437 780.238 225.697 779.943 225.954C783.336 229.054 786.546 233.101 789.411 238.353C796.362 251.097 798.167 262.963 797.815 272.238C797.64 276.843 796.934 280.823 796.061 283.977C795.301 286.723 794.139 289.859 792.463 292.094C789.007 296.702 782.469 297.636 777.861 294.18C773.253 290.724 772.319 284.186 775.775 279.578C775.064 280.526 775.395 280.446 775.959 278.409C776.411 276.779 776.858 274.404 776.97 271.449C777.192 265.602 776.102 257.51 771.101 248.341C766.748 240.361 762.334 238.545 759.147 237.832C757.149 237.386 755.199 237.296 752.704 237.202C751.6 237.161 750.067 237.107 748.623 236.938C747.239 236.776 745.012 236.419 742.761 235.294C738.435 233.131 736.162 228.277 737.273 223.57C738.384 218.863 742.587 215.535 747.423 215.535C756.67 215.535 762.818 213.413 766.654 209.862C770.337 206.451 773.689 200.037 773.689 187.339Z" fill="#EED4B2"/>
<path d="M934.924 189.474C940.31 187.431 946.333 190.143 948.375 195.528C950.43 200.946 954.436 217.496 956.018 235.973C957.569 254.095 957.102 277.1 947.681 293.589C944.824 298.589 938.45 300.328 933.449 297.47C928.449 294.612 926.711 288.242 929.568 283.242C935.596 272.692 936.74 255.345 935.233 237.754C933.758 220.519 930.038 205.995 928.874 202.926C926.831 197.54 929.539 191.517 934.924 189.474ZM966.089 193.227C974.059 186.872 986.023 183.556 1001.62 189.474C1007.01 191.517 1009.72 197.54 1007.67 202.926C1005.63 208.311 999.607 211.019 994.222 208.976C985.289 205.588 981.122 207.918 979.096 209.534C977.771 210.591 976.781 211.868 976.116 212.941C975.794 213.458 975.58 213.879 975.463 214.125C975.407 214.243 975.376 214.316 975.369 214.332C975.371 214.328 975.375 214.319 975.38 214.306C975.385 214.293 975.391 214.275 975.399 214.253C975.403 214.243 975.406 214.231 975.41 214.219C975.413 214.213 975.419 214.207 975.422 214.2L975.425 214.189L975.422 214.185C973.395 219.572 967.39 222.302 962 220.281C956.608 218.258 953.875 212.245 955.897 206.852L965.252 210.36C956.079 206.92 955.902 206.848 955.901 206.841C955.902 206.839 955.907 206.834 955.908 206.83C955.911 206.822 955.913 206.812 955.916 206.803C955.923 206.785 955.931 206.763 955.939 206.743C955.954 206.702 955.975 206.658 955.995 206.607C956.036 206.504 956.086 206.38 956.146 206.237C956.266 205.954 956.424 205.593 956.625 205.17C957.027 204.326 957.605 203.21 958.39 201.945C959.94 199.447 962.417 196.157 966.089 193.227Z" fill="#EED4B2"/>
<path d="M1079.63 187.441C1084.91 185.132 1091.06 187.539 1093.37 192.816C1107.06 224.1 1119.6 264.195 1117.07 297.255C1115.79 314.007 1110.54 330.046 1098.45 341.875C1086.27 353.795 1068.61 360 1045.52 360C1039.76 360 1035.09 355.33 1035.09 349.57C1035.09 343.81 1039.76 339.14 1045.52 339.14C1064.92 339.14 1076.68 333.998 1083.86 326.968C1091.14 319.845 1095.23 309.329 1096.28 295.663C1098.4 267.886 1087.61 231.693 1074.26 201.175C1071.95 195.898 1074.35 189.75 1079.63 187.441ZM1021.7 200.711C1023.92 195.394 1030.02 192.88 1035.34 195.094C1040.65 197.309 1043.17 203.414 1040.95 208.73C1036.45 219.541 1033.07 232.62 1033.07 243.347C1033.07 254.482 1036.41 259.03 1040.69 260.586C1050.36 264.103 1056.25 264.555 1060.46 263.932C1064.66 263.309 1068.41 261.455 1073.83 257.847C1078.62 254.652 1085.1 255.944 1088.29 260.737C1091.49 265.529 1090.19 272.004 1085.4 275.199C1079.22 279.315 1072.35 283.256 1063.52 284.565C1054.69 285.873 1045.13 284.393 1033.56 280.186C1016.59 274.016 1012.21 257.32 1012.21 243.347C1012.21 228.968 1016.55 213.076 1021.7 200.711Z" fill="#EED4B2"/>
<path d="M853.189 233.951C853.212 233.968 853.462 234.164 854.041 234.524C854.909 235.065 856.153 235.745 857.647 236.403C860.754 237.77 864.187 238.711 867.164 238.711C875.795 238.711 880.675 237 883.29 234.879C885.461 233.118 887.639 229.793 887.639 222.103C887.639 217.968 886.11 215.075 883.596 212.823C880.847 210.362 876.547 208.4 871.091 207.539C859.695 205.739 847.742 209.272 842.083 215.558C837.808 220.308 833.541 228.011 831.046 236.776C828.548 245.554 828.136 254.3 830.269 261.329C832.265 267.902 836.592 273.507 845.218 276.863C854.345 280.413 869.014 281.691 891.657 277.07C897.3 275.919 902.809 279.56 903.961 285.203C905.113 290.846 901.472 296.355 895.829 297.507C871.155 302.543 851.985 301.872 837.659 296.3C822.833 290.533 814.092 279.844 810.311 267.387C806.668 255.385 807.768 242.358 810.982 231.065C814.2 219.762 819.842 209.092 826.58 201.605C838.304 188.579 858.221 184.389 874.346 186.935C882.651 188.247 891.026 191.476 897.511 197.282C904.23 203.299 908.495 211.754 908.495 222.103C908.495 234.027 904.88 244.222 896.428 251.076C888.421 257.571 877.847 259.571 867.164 259.571C860.295 259.571 853.899 257.542 849.243 255.494C846.857 254.443 844.736 253.301 843.011 252.227C841.594 251.344 839.583 249.984 838.127 248.345C834.3 244.041 834.687 237.45 838.99 233.623C843.106 229.964 849.307 230.164 853.189 233.951Z" fill="#EED4B2"/>
<path d="M369.34 178.976C382.225 178.169 392.352 180.988 399.302 187.067C406.264 193.157 408.634 201.318 408.242 208.119C407.91 213.87 402.977 218.262 397.227 217.931C391.478 217.598 387.085 212.669 387.416 206.92C387.487 205.684 387.071 204.082 385.567 202.767C384.05 201.44 380.028 199.207 370.645 199.794C362.694 200.292 356.799 205.124 354.881 209.451C354.005 211.428 354.096 212.882 354.511 213.925C354.928 214.968 356.239 217.008 360.486 218.991C365.693 221.421 372.178 223.431 378.314 225.218C381.222 226.065 384.22 226.913 386.59 227.659C388.385 228.224 391.361 229.176 393.632 230.59L393.636 230.586C400.439 234.744 405.305 240.437 407.578 247.206C409.845 253.959 409.231 260.906 406.616 266.976C401.44 278.986 388.696 287.498 373.361 288.409C360.165 289.193 349.857 286.467 342.75 280.57C335.55 274.597 332.968 266.443 333.391 259.484C333.741 253.735 338.687 249.357 344.436 249.707C350.184 250.057 354.559 255 354.21 260.748C354.151 261.715 354.467 263.187 356.069 264.516C357.765 265.923 362.167 268.178 372.123 267.587C380.711 267.077 385.825 262.518 387.461 258.722C388.251 256.889 388.276 255.251 387.804 253.845C387.338 252.455 386.082 250.415 382.757 248.383L382.58 248.274L382.708 248.356C382.815 248.436 382.253 248.162 380.332 247.557C378.245 246.9 375.678 246.177 372.478 245.244C366.397 243.473 358.492 241.08 351.663 237.893C343.835 234.238 337.968 228.757 335.134 221.646C332.3 214.534 333.067 207.198 335.813 201.001C341.141 188.979 354.281 179.919 369.34 178.976Z" fill="#EED4B2"/>
</svg>
