<svg width="687" height="222" viewBox="0 0 687 222" fill="none" xmlns="http://www.w3.org/2000/svg">
<path d="M81.9935 174.692C67.3318 174.692 52.7272 170.386 42.8268 165.359C36.1197 161.957 29.8704 157.56 24.2506 152.305C19.6381 147.987 18.3906 141.013 21.2176 135.356C21.4694 134.852 21.6754 134.372 21.87 133.936C22.4079 132.745 22.9573 131.498 23.8615 130.352C26.0705 127.524 30.168 127.019 32.995 129.241C35.7649 131.417 36.3029 135.391 34.2312 138.219C34.071 138.505 33.9221 138.86 33.7504 139.25C33.4871 139.845 33.1896 140.498 32.8463 141.173C32.5715 141.723 32.686 142.376 33.1324 142.788C37.848 147.197 43.0785 150.884 48.6983 153.735C63.5089 161.248 92.9583 167.568 108.959 152.545C117.143 144.86 120.507 128.897 118.173 108.755C116.032 90.2612 109.383 71.5268 101.233 61.0374C95.0528 53.0673 81.6501 39.3029 61.3915 36.566C55.8747 35.8217 42.9985 34.0811 31.1065 41.8222C20.0845 49.0022 10.4816 63.8888 13.5033 76.3707C15.1171 83.0239 20.4278 89.345 28.0735 93.7079C39.5076 100.235 54.1923 101.483 68.3847 97.1433C71.8298 96.1012 75.4581 98.025 76.5111 101.472C77.5641 104.907 75.6298 108.549 72.1846 109.603C54.5814 114.985 36.154 113.313 21.6296 105.022C10.8822 98.8839 3.3167 89.5626 0.867351 79.4282C-2.6121 65.0683 4.23233 43.7804 24.0217 30.9091C39.9654 20.5343 56.779 22.8016 63.1198 23.6605C81.5585 26.1454 98.7384 36.5775 111.523 53.0445C121.023 65.2859 128.714 86.5623 131.106 107.244C132.754 121.512 133.235 147.609 117.876 162.026C108.02 171.29 94.9728 174.669 81.9935 174.669V174.692ZM34.1626 138.334C34.1626 138.334 34.1281 138.368 34.1167 138.391C34.1281 138.368 34.1511 138.357 34.1626 138.334Z" fill="#C15B29"/>
<path d="M137.058 91.7727C133.475 91.7727 130.569 88.8755 130.546 85.2913C130.534 81.6956 133.429 78.7641 137.024 78.7526C144.853 78.7182 150.357 73.7713 150.953 69.2251C151.307 66.534 150.266 62.6177 147.977 60.9916C146.363 59.8465 143.868 59.8007 141.682 59.755C138.958 59.6977 133.304 59.5831 131.575 54.1782C129.881 48.8991 134.197 45.5439 136.268 43.9293C137.539 42.9445 138.855 41.9138 139.691 40.7C142.747 36.2339 141.224 26.7638 136.485 20.8091C130.122 12.8046 116.639 10.6289 107.643 16.1599C102.927 19.0571 100.398 23.5345 99.0931 26.7867C97.7654 30.1304 93.9769 31.7451 90.6348 30.4168C87.2927 29.0883 85.6674 25.298 87.0065 21.9542C89.0324 16.8814 93.0727 9.82732 100.821 5.06359C115.551 -3.99438 136.108 -0.570432 146.661 12.7016C154.009 21.9428 157.431 37.5967 150.518 47.9028C152.166 48.4296 153.848 49.2084 155.474 50.3535C162.479 55.3004 164.733 64.2553 163.852 70.9199C162.296 82.7376 150.792 91.704 137.081 91.7727H137.047H137.058Z" fill="#C15B29"/>
<path d="M183.853 74.2726C189.352 73.939 196.462 76.8482 198.083 84.912C200.396 96.4234 193.784 106.399 183.929 110.321C180.643 111.628 176.918 110.024 175.611 106.738C174.303 103.451 175.908 99.7271 179.194 98.4193C183.97 96.5185 186.482 92.2003 185.525 87.437C185.497 87.298 185.464 87.2218 185.449 87.1891C185.371 87.1454 185.095 87.0312 184.629 87.0594C184.484 87.0682 184.349 87.0927 184.23 87.1219C183.771 90.2089 181.118 92.5795 177.904 92.5795C174.367 92.5795 171.499 89.7113 171.499 86.1745C171.499 78.0019 178.952 74.5699 183.853 74.2726Z" fill="#C15B29"/>
<path d="M351.775 155.369C351.775 152.147 351.094 150.115 350.23 148.749C349.369 147.388 348.01 146.188 345.812 145.151C341.063 142.912 333.711 142.006 323.535 141.607C320.049 141.471 317.314 138.569 317.382 135.082C317.451 131.594 320.297 128.802 323.785 128.802C330.956 128.802 339.702 127.38 345.694 123.784C348.583 122.051 350.553 119.983 351.629 117.579C352.682 115.226 353.167 111.912 351.967 107.11C349.361 96.6861 339.795 91.6841 329.182 91.3076C323.96 91.1225 319.213 92.147 316.018 93.7515C312.634 95.4513 312.4 96.9326 312.4 97.2539C312.594 109.592 313.783 128.581 313.134 144.366C312.807 152.319 312.006 160.068 310.192 166.224C308.52 171.896 305.225 178.767 298.061 180.558C294.63 181.416 291.152 179.331 290.294 175.9C289.436 172.469 291.521 168.991 294.952 168.133C294.98 168.126 295.044 168.109 295.165 168.019C295.302 167.919 295.539 167.704 295.846 167.285C296.494 166.4 297.227 164.903 297.906 162.601C299.266 157.984 300.023 151.5 300.338 143.838C300.972 128.433 299.798 110.715 299.592 97.3536C299.591 97.3207 299.59 97.2868 299.59 97.2539C299.59 89.8666 304.985 84.9597 310.269 82.3059C315.742 79.5567 322.703 78.2613 329.634 78.5069C343.327 78.9923 359.854 85.8514 364.393 104.002C366.157 111.059 365.753 117.384 363.322 122.814C361.023 127.95 357.171 131.7 352.889 134.391C356.11 136.169 358.958 138.592 361.052 141.901C363.486 145.749 364.585 150.29 364.585 155.369C364.585 167.367 358.389 175.792 349.871 179.951C341.705 183.939 331.695 183.898 323.507 180.176C320.287 178.712 318.863 174.916 320.327 171.696C321.79 168.476 325.587 167.052 328.807 168.515C333.665 170.723 339.667 170.682 344.251 168.443C348.483 166.377 351.775 162.348 351.775 155.369Z" fill="#C15B29"/>
<path d="M373.123 166.044C373.123 155.81 378.452 148.83 385.41 145.568C391.844 142.553 399.903 142.674 405.616 146.483C408.558 148.446 409.352 152.422 407.391 155.365C405.428 158.307 401.452 159.101 398.509 157.139C397.107 156.205 393.898 155.733 390.844 157.165C388.313 158.351 385.933 160.859 385.933 166.044C385.933 168.275 386.551 169.542 387.205 170.341C387.92 171.213 389.077 171.996 390.789 172.534C394.424 173.677 399.075 173.234 401.912 172.018C405.163 170.625 408.928 172.13 410.321 175.381C411.714 178.632 410.208 182.397 406.957 183.79C401.493 186.132 393.691 186.875 386.948 184.756C383.471 183.663 379.957 181.704 377.3 178.462C374.582 175.146 373.123 170.928 373.123 166.044ZM412.262 143.509C412.262 137.569 411.147 133.562 409.369 131.162C407.863 129.129 405.24 127.38 399.691 127.38C396.155 127.38 393.966 128.982 392.505 130.924C391.735 131.948 391.209 133.033 390.907 133.914C390.731 134.429 390.677 134.725 390.661 134.82C390.864 138.11 388.517 141.061 385.197 141.545C381.697 142.055 378.445 139.631 377.935 136.131C377.614 133.934 378.18 131.539 378.787 129.766C379.486 127.725 380.615 125.419 382.266 123.224C385.649 118.727 391.367 114.57 399.691 114.57C408.373 114.57 415.239 117.564 419.663 123.537C423.816 129.142 425.072 136.404 425.072 143.509C425.072 146.126 424.829 149.611 424.634 152.946C424.431 156.43 424.26 160.004 424.329 163.296C424.399 166.68 424.718 169.274 425.262 170.961C425.413 171.431 425.547 171.725 425.64 171.9C428.707 173.034 430.462 176.341 429.599 179.562C428.683 182.979 425.169 185.007 421.753 184.091C416.546 182.696 414.159 178.268 413.071 174.89C411.947 171.402 411.601 167.314 411.523 163.563C411.443 159.721 411.643 155.707 411.847 152.2C412.061 148.544 412.262 145.637 412.262 143.509Z" fill="#C15B29"/>
<path d="M437.169 175.532V80.6498C437.169 77.1126 440.037 74.2448 443.574 74.2448C447.111 74.2448 449.979 77.1126 449.979 80.6498V175.532C449.979 179.069 447.111 181.937 443.574 181.937C440.037 181.937 437.169 179.069 437.169 175.532ZM475.122 115.045C475.122 111.507 477.989 108.64 481.527 108.64C485.064 108.64 487.932 111.507 487.932 115.045C487.932 125.036 485.245 132.958 479.502 138.276C479.324 138.441 479.144 138.601 478.962 138.758C481.046 140.662 483.017 143.147 484.777 146.372C489.045 154.198 490.154 161.485 489.938 167.181C489.83 170.009 489.397 172.453 488.86 174.39C488.393 176.076 487.68 178.002 486.651 179.375C484.528 182.205 480.513 182.778 477.684 180.656C474.854 178.534 474.28 174.519 476.403 171.689C475.966 172.271 476.17 172.222 476.516 170.971C476.793 169.97 477.068 168.511 477.137 166.697C477.273 163.106 476.604 158.137 473.532 152.506C470.859 147.605 468.149 146.49 466.192 146.053C464.964 145.778 463.767 145.723 462.235 145.666C461.557 145.64 460.615 145.607 459.729 145.504C458.879 145.404 457.511 145.185 456.129 144.494C453.472 143.165 452.076 140.185 452.758 137.294C453.441 134.403 456.022 132.36 458.992 132.36C464.67 132.36 468.446 131.057 470.801 128.876C473.063 126.781 475.122 122.843 475.122 115.045Z" fill="#C15B29"/>
<path d="M574.136 116.356C577.443 115.101 581.142 116.767 582.397 120.074C583.658 123.4 586.118 133.564 587.09 144.911C588.043 156.039 587.756 170.167 581.97 180.292C580.215 183.364 576.301 184.431 573.23 182.676C570.16 180.921 569.092 177.009 570.847 173.938C574.549 167.46 575.251 156.807 574.326 146.004C573.42 135.421 571.136 126.502 570.421 124.616C569.166 121.309 570.829 117.611 574.136 116.356ZM593.275 118.661C598.169 114.758 605.516 112.721 615.096 116.356C618.403 117.611 620.066 121.309 618.811 124.616C617.557 127.923 613.858 129.587 610.551 128.332C605.065 126.251 602.506 127.682 601.262 128.675C600.448 129.323 599.84 130.108 599.432 130.767C599.235 131.085 599.103 131.343 599.031 131.494C598.997 131.566 598.977 131.612 598.973 131.621C598.974 131.619 598.977 131.613 598.98 131.605C598.983 131.597 598.987 131.586 598.992 131.573C598.994 131.566 598.996 131.559 598.999 131.552C599 131.548 599.004 131.544 599.006 131.54L599.008 131.533L599.006 131.531C597.761 134.839 594.074 136.516 590.764 135.274C587.452 134.032 585.774 130.34 587.016 127.028L592.76 129.182C587.127 127.069 587.019 127.025 587.018 127.021C587.018 127.02 587.022 127.016 587.023 127.014C587.024 127.009 587.025 127.003 587.027 126.998C587.031 126.987 587.036 126.973 587.041 126.961C587.051 126.936 587.063 126.908 587.076 126.877C587.101 126.814 587.132 126.737 587.169 126.65C587.242 126.476 587.339 126.255 587.463 125.995C587.709 125.476 588.065 124.791 588.547 124.014C589.498 122.48 591.019 120.46 593.275 118.661Z" fill="#C15B29"/>
<path d="M663 115.107C666.241 113.689 670.019 115.167 671.437 118.408C679.842 137.62 687.548 162.242 685.993 182.544C685.205 192.831 681.982 202.681 674.557 209.945C667.075 217.265 656.234 221.076 642.055 221.076C638.518 221.076 635.65 218.208 635.65 214.671C635.65 211.134 638.518 208.266 642.055 208.266C653.966 208.266 661.186 205.108 665.599 200.79C670.07 196.417 672.58 189.959 673.223 181.566C674.529 164.508 667.901 142.282 659.701 123.541C658.284 120.301 659.76 116.525 663 115.107ZM627.426 123.256C628.787 119.992 632.535 118.447 635.8 119.807C639.065 121.167 640.609 124.916 639.249 128.181C636.483 134.82 634.406 142.852 634.406 149.439C634.406 156.277 636.458 159.07 639.085 160.025C645.025 162.186 648.643 162.463 651.228 162.08C653.807 161.698 656.111 160.559 659.435 158.344C662.378 156.382 666.357 157.175 668.319 160.118C670.28 163.061 669.484 167.037 666.542 168.999C662.75 171.527 658.53 173.947 653.104 174.751C647.683 175.554 641.812 174.646 634.707 172.062C624.288 168.273 621.596 158.02 621.596 149.439C621.596 140.609 624.262 130.85 627.426 123.256Z" fill="#C15B29"/>
<path d="M523.942 143.669C523.957 143.679 524.111 143.8 524.466 144.021C524.999 144.353 525.763 144.771 526.681 145.175C528.589 146.014 530.697 146.592 532.525 146.592C537.825 146.592 540.822 145.541 542.428 144.239C543.761 143.158 545.099 141.116 545.099 136.393C545.099 133.854 544.16 132.078 542.615 130.695C540.927 129.183 538.287 127.978 534.936 127.449C527.938 126.344 520.597 128.514 517.123 132.374C514.497 135.291 511.877 140.021 510.345 145.404C508.811 150.794 508.558 156.166 509.868 160.482C511.093 164.519 513.751 167.961 519.048 170.021C524.653 172.201 533.661 172.986 547.566 170.149C551.031 169.441 554.414 171.677 555.122 175.143C555.829 178.608 553.593 181.991 550.128 182.699C534.976 185.791 523.203 185.38 514.406 181.958C505.301 178.416 499.933 171.852 497.611 164.202C495.374 156.831 496.05 148.832 498.024 141.897C500 134.956 503.464 128.403 507.602 123.805C514.802 115.806 527.033 113.233 536.935 114.797C542.035 115.602 547.179 117.585 551.161 121.151C555.287 124.846 557.906 130.038 557.906 136.393C557.906 143.716 555.686 149.976 550.496 154.186C545.579 158.174 539.085 159.402 532.525 159.402C528.307 159.402 524.378 158.157 521.519 156.898C520.054 156.254 518.752 155.552 517.693 154.892C516.822 154.35 515.587 153.515 514.693 152.509C512.343 149.865 512.581 145.818 515.223 143.468C517.751 141.221 521.559 141.344 523.942 143.669Z" fill="#C15B29"/>
<path d="M226.811 109.909C234.724 109.413 240.943 111.145 245.211 114.878C249.486 118.618 250.942 123.629 250.701 127.806C250.497 131.337 247.468 134.035 243.937 133.831C240.406 133.627 237.708 130.6 237.912 127.069C237.955 126.31 237.7 125.327 236.776 124.519C235.845 123.704 233.375 122.333 227.613 122.693C222.73 122.999 219.11 125.967 217.932 128.624C217.394 129.838 217.45 130.731 217.705 131.371C217.961 132.012 218.766 133.264 221.374 134.482C224.571 135.974 228.554 137.209 232.322 138.306C234.108 138.827 235.949 139.347 237.404 139.805C238.507 140.152 240.334 140.737 241.729 141.605L241.731 141.603C245.909 144.156 248.897 147.652 250.293 151.809C251.685 155.956 251.308 160.222 249.702 163.95C246.524 171.325 238.698 176.552 229.28 177.112C221.177 177.593 214.847 175.919 210.482 172.298C206.061 168.63 204.476 163.622 204.735 159.349C204.95 155.819 207.987 153.13 211.518 153.345C215.048 153.56 217.734 156.595 217.52 160.125C217.484 160.719 217.678 161.623 218.662 162.439C219.703 163.303 222.407 164.688 228.521 164.325C233.795 164.012 236.935 161.212 237.939 158.881C238.424 157.756 238.44 156.749 238.15 155.886C237.864 155.033 237.093 153.78 235.051 152.532L234.942 152.465L235.021 152.516C235.086 152.565 234.741 152.396 233.561 152.024C232.28 151.621 230.704 151.177 228.738 150.604C225.004 149.517 220.149 148.047 215.956 146.09C211.149 143.846 207.546 140.48 205.805 136.113C204.065 131.745 204.536 127.24 206.222 123.435C209.494 116.052 217.563 110.488 226.811 109.909Z" fill="#C15B29"/>
</svg>
