<svg width="667" height="200" viewBox="0 0 667 200" fill="none" xmlns="http://www.w3.org/2000/svg">
<path d="M82.3423 175.347C67.6182 175.347 52.9515 171.025 43.009 165.979C36.2734 162.565 29.9975 158.151 24.3538 152.876C19.7216 148.542 18.4688 141.542 21.3079 135.864C21.5607 135.358 21.7676 134.876 21.963 134.439C22.5032 133.243 23.055 131.991 23.963 130.841C26.1814 128.002 30.2963 127.496 33.1354 129.726C35.917 131.91 36.4573 135.899 34.3768 138.738C34.2159 139.025 34.0664 139.381 33.894 139.772C33.6296 140.37 33.3308 141.025 32.986 141.703C32.7101 142.255 32.8251 142.91 33.2733 143.324C38.009 147.749 43.2618 151.45 48.9055 154.312C63.7791 161.853 93.3538 168.197 109.423 153.117C117.641 145.404 121.02 129.381 118.676 109.163C116.526 90.5998 109.848 71.7952 101.664 61.2664C95.4572 53.2664 81.9975 39.4503 61.6527 36.7032C56.1124 35.9561 43.1814 34.2089 31.2388 41.9791C20.1699 49.186 10.5262 64.1285 13.5607 76.6572C15.1814 83.3354 20.5147 89.6802 28.1929 94.0595C39.6757 100.611 54.4228 101.864 68.6756 97.5078C72.1354 96.4618 75.7791 98.3928 76.8366 101.853C77.8941 105.301 75.9515 108.956 72.4917 110.014C54.8136 115.416 36.3078 113.738 21.7216 105.416C10.9285 99.2549 3.33081 89.8986 0.871041 79.7262C-2.62321 65.3124 4.25033 43.9446 24.1239 31.025C40.1354 20.6113 57.0205 22.8871 63.3883 23.7492C81.9055 26.2435 99.1584 36.7147 111.997 53.2435C121.538 65.5308 129.262 86.8871 131.664 107.646C133.319 121.968 133.802 148.163 118.377 162.634C108.48 171.933 95.3768 175.324 82.3423 175.324V175.347ZM34.3079 138.853C34.3079 138.853 34.2733 138.887 34.2618 138.91C34.2733 138.887 34.2964 138.876 34.3079 138.853Z" fill="#AA4500"/>
<path d="M137.641 92.1171C134.043 92.1171 131.124 89.209 131.101 85.6113C131.089 82.0021 133.997 79.0596 137.607 79.0481C145.469 79.0136 150.997 74.0481 151.595 69.4849C151.951 66.7837 150.905 62.8527 148.607 61.2205C146.986 60.0711 144.48 60.0251 142.285 59.9792C139.549 59.9217 133.871 59.8067 132.135 54.3815C130.434 49.0826 134.768 45.7148 136.848 44.0941C138.124 43.1056 139.446 42.0711 140.285 40.8527C143.354 36.3699 141.825 26.8642 137.066 20.8872C130.676 12.8527 117.135 10.6688 108.101 16.2205C103.365 19.1286 100.825 23.6228 99.5147 26.8872C98.1813 30.2435 94.3767 31.8642 91.0204 30.5309C87.6641 29.1975 86.0319 25.3929 87.3767 22.0366C89.4112 16.9447 93.4687 9.8642 101.25 5.08259C116.043 -4.00936 136.687 -0.572569 147.285 12.7493C154.664 22.0251 158.101 37.7378 151.158 48.0826C152.813 48.6113 154.503 49.393 156.135 50.5424C163.17 55.5079 165.434 64.4964 164.549 71.186C162.986 83.0481 151.434 92.0481 137.664 92.1171H137.63H137.641Z" fill="#AA4500"/>
<path d="M184.257 99.1665C186.137 96.5729 186.595 94.7706 186.595 92.9684C186.595 91.5177 186.366 90.9463 185.77 90.9463C185.312 90.9463 184.578 91.1661 183.798 91.1661C180.405 91.1661 177.012 88.7924 177.012 84.5285C177.012 79.8249 180.543 77.0115 184.761 77.0115C190.631 77.0115 194.253 80.9678 194.253 87.3417C194.253 93.1002 192.511 97.672 188.613 101.848C186.412 104.573 183.798 106.112 181.368 107.607C180.909 107.958 180.451 108.046 180.084 108.046C179.03 108.046 177.746 106.683 177.746 105.804C177.746 105.233 177.975 104.793 178.663 104.354C181.139 102.683 183.019 100.969 184.303 99.1665" fill="#AA4500"/>
<path d="M234.638 133.371C248.78 136.82 255.172 141.248 255.172 152.574C255.172 163.9 245.777 171.264 229.649 171.264C213.522 171.264 204.901 162.828 203.545 154.718C203.448 154.112 203.448 153.646 203.448 153.18C203.448 149.964 205.918 148.286 210.519 148.286C214.006 148.286 215.459 149.964 215.992 153.04C216.863 158.866 222.675 161.756 229.892 161.756C238.803 161.756 243.258 158.4 243.258 152.341C243.258 147.587 240.401 146.142 230.376 143.625L227.131 142.786C213.231 139.197 205.434 135.981 205.434 124.049C205.434 113.935 214.248 106.897 229.359 106.897C242.241 106.897 249.893 111.418 252.509 120.507C252.751 121.206 252.751 121.951 252.751 122.511C252.751 125.494 250.523 127.405 246.067 127.405C243.452 127.405 241.467 126.473 240.74 123.723C239.384 118.969 235.655 116.452 229.214 116.452C221.416 116.452 217.445 119.201 217.445 124.049C217.445 129.176 221.513 130.248 231.199 132.532L234.686 133.371H234.638Z" fill="#AA4500"/>
<path d="M329.917 78.1609C348.782 78.1609 358.168 85.8897 358.168 101.161C358.168 110.1 354.59 116.386 347.016 119.971C358.679 123.184 364.115 130.912 364.115 143.064C364.115 161.036 353.056 170.115 331.079 170.115H308.729C297.531 170.115 294 166.763 294 156.427V91.8028C294 81.6995 297.671 78.2075 308.869 78.2075H329.917V78.1609ZM310.309 89.1023C307.939 89.1023 306.731 90.3129 306.731 92.6874V116.013H329.545C340.232 116.013 345.25 110.519 345.25 102.185C345.25 93.8513 340.279 89.1023 330.289 89.1023H310.309ZM306.731 155.309C306.731 157.823 307.893 158.987 310.17 158.987H331.311C344.367 158.987 350.919 153.493 350.919 142.785C350.919 132.076 344.368 126.722 331.404 126.722H306.685V155.309H306.731Z" fill="#AA4500"/>
<path d="M427.001 151.996C427.001 156.511 427.611 159.862 428.927 162.096C429.397 162.933 429.632 163.771 429.632 164.702C429.632 168.518 425.779 170.52 422.677 170.52C420.75 170.52 419.199 169.589 418.118 167.681C417.743 166.983 417.038 165.167 416.662 163.771C410.27 169.123 403.691 171.264 395.279 171.264C382.543 171.264 374.46 164.376 374.46 152.927C374.46 142.222 380.616 136.032 394.433 132.448C400.072 131.005 406.793 129.842 415.487 129.097V126.351C415.487 119.789 411.304 116.345 403.456 116.345C394.339 116.345 391.425 120.254 389.639 125.513C388.699 128.259 386.538 129.19 384.376 129.19C380.757 129.19 377.656 127.282 377.656 124.303C377.656 123.698 377.75 123 378.032 122.255C381.65 111.877 390.391 106.897 403.644 106.897C419.858 106.897 427.095 113.319 427.095 126.398V151.856L427.001 151.996ZM415.44 138.08C408.343 138.685 402.093 139.988 396.454 141.757C389.827 143.898 386.115 147.342 386.115 152.927C386.115 158.512 390.438 161.863 396.924 161.863C403.409 161.863 409.518 158.744 415.44 153.066V138.08Z" fill="#AA4500"/>
<path d="M454.11 136.905C456.645 134.136 459.04 131.366 461.294 129.113L480.5 109.54C481.674 108.32 483.13 107.756 484.68 107.756C487.826 107.756 491.066 110.667 491.066 113.764C491.066 115.079 490.597 116.299 489.282 117.613L471.156 134.558L491.677 161.924C492.522 163.003 492.851 164.224 492.851 165.303C492.851 168.683 489.516 171.171 486.229 171.171C484.539 171.171 482.989 170.466 481.815 168.777L462.703 142.115L454.063 150.048V165.632C454.063 169.481 452.137 171.264 448.052 171.264C444.201 171.264 442.276 169.481 442.276 165.632V82.5502C442.276 78.8421 444.201 77.0115 448.052 77.0115C452.137 77.0115 454.063 78.7951 454.063 82.5502V136.905H454.11Z" fill="#AA4500"/>
<path d="M511.497 142.18C512.115 151.828 517.681 161.616 528.907 161.616C535.377 161.616 540.086 158.26 543.13 151.362C544.225 148.845 546.175 147.773 548.363 147.773C551.645 147.773 555.308 150.01 555.308 152.9C555.308 153.739 555.071 154.578 554.595 155.51C549.267 165.997 540.847 171.264 528.907 171.264C511.021 171.264 499.747 158.4 499.747 138.964C499.747 122.884 509.214 106.897 529.05 106.897C548.887 106.897 556.069 124.515 556.069 133.464C556.069 139.29 553.168 142.18 547.412 142.18H511.544H511.497ZM542.988 132.672C543.844 132.672 544.32 132.066 544.32 131.367L544.177 130.9C542.369 121.252 536.994 116.498 529.003 116.498C520.345 116.498 513.685 122.464 511.83 132.718H542.988V132.672Z" fill="#AA4500"/>
<path d="M579.819 165.704C579.819 169.427 577.688 171.264 573.619 171.264C569.549 171.264 567.563 169.474 567.563 165.704V113.022C567.563 109.394 569.694 107.603 573.764 107.603C577.833 107.603 579.819 109.394 579.819 113.022V117.122C581.805 113.965 584.373 111.703 586.892 110.007C590.38 107.698 593.965 106.897 599.39 106.897C603.847 106.897 605.494 108.593 605.494 112.174C605.494 116.274 603.508 118.347 599.536 118.347C593.819 118.347 590.38 118.96 587.522 121.221C584.034 124.002 581.321 128.337 579.819 134.604V165.704Z" fill="#AA4500"/>
<path d="M633.724 141.874C635.669 146.606 637.377 151.616 638.563 155.652C639.892 151.384 641.363 146.652 643.023 142.013L654.41 110.561C655.359 108.056 657.21 106.897 659.629 106.897C663.52 106.897 666.414 109.123 666.414 111.86C666.414 112.556 666.319 113.298 665.939 114.133L639.133 183.161C634.768 194.433 628.078 200 619.111 200C614.271 200 611.235 199.397 608.531 198.005C606.348 196.799 605.494 195.268 605.494 193.506C605.494 189.609 608.151 186.64 611.092 186.64C612.089 186.64 613.18 186.872 614.271 187.475C615.837 188.31 617.688 189.006 619.111 189.006C622.622 189.006 625.658 186.64 627.983 180.47L632.443 168.502L609.527 114.504C609.147 113.669 609.053 112.974 609.053 112.231C609.053 109.262 612.089 107.036 616.074 107.036C618.636 107.036 620.297 108.195 621.293 110.608L633.676 141.92L633.724 141.874Z" fill="#AA4500"/>
</svg>
